<?xml version="1.0" standalone="no"?>
<!DOCTYPE svg PUBLIC "-//W3C//DTD SVG 20010904//EN"
 "http://www.w3.org/TR/2001/REC-SVG-20010904/DTD/svg10.dtd">
<svg version="1.0" xmlns="http://www.w3.org/2000/svg"
 width="835.000000pt" height="835.000000pt" viewBox="0 0 835.000000 835.000000"
 preserveAspectRatio="xMidYMid meet">
<metadata>
Created by potrace 1.14, written by Peter Selinger 2001-2017
</metadata>
<g transform="translate(0.000000,835.000000) scale(0.100000,-0.100000)"
fill="#000000" stroke="none">
<path d="M5713 7874 c-3 -8 -12 -13 -21 -9 -13 5 -13 3 -1 -11 13 -16 12 -16
-8 -6 -31 17 -38 15 -22 -5 12 -16 12 -17 -2 -6 -9 7 -20 9 -24 5 -5 -4 -5 2
-1 12 5 15 4 17 -8 7 -10 -8 -16 -9 -21 -1 -3 6 -11 8 -16 4 -5 -3 -7 -10 -3
-15 3 -5 9 -7 14 -4 5 3 11 2 14 -3 6 -10 -98 -7 -115 3 -8 6 -10 4 -4 -5 6
-10 4 -12 -10 -6 -15 5 -16 4 -5 -9 12 -14 10 -14 -15 -5 -15 6 -30 8 -33 5
-3 -2 -12 1 -20 8 -13 9 -14 9 -8 0 4 -7 9 -22 11 -34 3 -17 2 -19 -10 -9 -8
7 -13 16 -10 19 2 4 -2 8 -11 8 -9 0 -13 -7 -9 -21 3 -12 2 -15 -1 -8 -3 6
-11 9 -16 6 -7 -5 -8 -2 -4 7 4 8 1 6 -7 -4 -13 -16 -15 -16 -21 -1 -5 12 -9
14 -20 5 -7 -6 -15 -8 -18 -5 -3 3 -5 -2 -4 -12 0 -9 -7 -18 -17 -19 -9 -2
-15 1 -11 6 3 5 10 7 15 4 15 -10 10 2 -8 16 -11 10 -14 10 -9 2 4 -7 3 -13
-1 -13 -5 0 -15 6 -22 13 -11 10 -12 9 -5 -3 13 -23 13 -39 2 -47 -7 -3 -8 -1
-4 5 4 7 2 12 -4 12 -6 0 -9 4 -6 8 3 5 -1 9 -9 9 -11 0 -12 -4 -4 -13 7 -8 7
-14 -1 -19 -5 -3 -10 -1 -10 4 0 6 -5 11 -11 11 -6 0 -8 -7 -5 -17 4 -10 4
-14 0 -10 -4 4 -14 1 -22 -5 -8 -7 -28 -12 -46 -13 -17 0 -30 -5 -29 -11 1 -6
-4 -11 -12 -11 -8 0 -12 4 -9 8 2 4 0 10 -6 14 -6 3 -10 -4 -10 -17 l-1 -23
-14 25 c-12 21 -14 22 -12 5 1 -11 6 -27 11 -35 4 -8 -1 -5 -12 7 -17 19 -21
20 -26 7 -3 -8 -10 -12 -16 -9 -6 3 -7 -1 -4 -10 5 -11 2 -14 -12 -8 -13 5
-15 3 -9 -8 5 -8 -2 -5 -16 6 -13 11 -18 13 -11 5 19 -22 14 -32 -9 -20 -19
10 -20 10 -10 -9 8 -14 8 -22 -1 -27 -7 -4 -8 -3 -4 4 5 8 0 12 -13 12 -12 0
-21 -5 -21 -11 0 -5 6 -7 13 -3 6 4 8 3 4 -1 -12 -14 -36 -14 -33 -2 2 7 1 8
-2 4 -2 -4 -10 -3 -17 3 -10 8 -15 8 -21 -1 -4 -7 -3 -9 4 -5 6 4 16 -4 23
-16 11 -20 10 -22 -3 -10 -13 10 -17 9 -23 -5 -5 -10 -7 -22 -6 -26 1 -5 -3
-6 -9 -2 -8 5 -8 11 0 20 8 10 8 15 -1 21 -8 4 -9 3 -5 -4 4 -7 2 -12 -3 -12
-6 0 -11 -6 -11 -14 0 -8 -9 -21 -20 -29 -11 -8 -17 -17 -12 -22 4 -5 0 -4 -8
1 -21 12 -39 14 -45 4 -3 -5 0 -12 6 -16 8 -5 9 -3 4 6 -5 9 -4 11 4 6 19 -12
2 -27 -18 -16 -14 7 -23 4 -40 -14 -17 -18 -19 -26 -10 -31 8 -6 10 -4 4 5 -5
9 -4 11 4 6 17 -11 3 -25 -21 -21 -11 3 -28 0 -37 -6 -14 -9 -14 -10 2 -5 22
7 22 -7 0 -25 -11 -10 -14 -10 -9 -1 4 7 2 12 -8 12 -8 0 -18 -5 -21 -10 -4
-6 -11 -7 -17 -4 -5 4 -2 -6 8 -22 18 -28 18 -29 -1 -14 -17 14 -18 13 -12 -2
4 -12 2 -15 -8 -12 -8 3 -11 13 -8 22 4 14 3 15 -5 2 -6 -8 -8 -19 -4 -25 15
-24 9 -33 -20 -29 -17 2 -28 1 -24 -3 9 -9 -14 -34 -25 -27 -5 3 -8 0 -7 -8 2
-8 -4 -12 -17 -10 -27 5 -14 -7 14 -13 12 -2 19 0 16 4 -9 15 19 31 35 20 12
-8 11 -9 -5 -7 -11 2 -20 -3 -20 -11 0 -13 -13 -18 -57 -23 -9 -1 -15 -5 -12
-9 2 -4 0 -10 -6 -14 -7 -4 -6 -13 1 -27 7 -12 7 -18 1 -14 -6 3 -16 0 -24 -7
-7 -8 -18 -12 -25 -10 -6 2 -14 -1 -18 -6 -4 -7 0 -8 11 -4 12 4 15 3 10 -5
-5 -8 -2 -10 8 -6 9 3 16 10 16 15 0 5 6 9 13 9 6 -1 -3 -14 -22 -30 -19 -16
-38 -27 -43 -24 -4 3 -8 0 -8 -6 0 -6 -4 -9 -9 -6 -12 8 -17 -11 -16 -51 1
-18 -2 -30 -7 -27 -5 3 -6 10 -3 15 4 5 -1 9 -9 9 -8 0 -18 -5 -22 -12 -4 -7
-3 -8 4 -4 11 6 13 1 11 -21 0 -5 -6 -7 -14 -5 -18 3 -28 -15 -14 -24 8 -5 9
-3 4 6 -6 9 -4 11 5 5 10 -6 10 -11 -3 -20 -9 -7 -13 -16 -9 -21 4 -4 -2 -2
-12 6 -18 14 -18 13 -11 -9 4 -14 3 -21 -3 -18 -5 4 -8 -4 -8 -16 3 -30 -3
-40 -18 -28 -8 7 -12 5 -13 -9 -1 -14 3 -17 15 -12 15 5 15 4 -1 -12 -9 -10
-15 -21 -12 -26 3 -4 -5 -6 -17 -3 -23 5 -23 5 -3 -11 11 -10 14 -15 8 -11 -7
3 -13 2 -13 -2 0 -5 6 -15 13 -22 7 -8 7 -11 1 -8 -17 10 -31 -14 -29 -46 1
-19 -1 -25 -9 -17 -14 14 -29 13 -19 -2 12 -21 12 -36 -1 -47 -9 -8 -13 -7
-13 4 0 8 3 12 7 10 4 -2 7 2 7 10 0 11 -4 12 -14 4 -7 -6 -10 -15 -7 -20 3
-5 0 -9 -7 -9 -7 0 -5 -6 6 -13 12 -10 14 -16 7 -21 -7 -4 -12 -12 -12 -17 0
-6 5 -7 12 -3 7 5 8 3 4 -5 -5 -7 -15 -10 -23 -7 -8 3 -11 1 -8 -4 3 -6 -1
-13 -10 -16 -10 -4 -12 -11 -7 -18 5 -6 12 -20 16 -30 5 -15 4 -17 -7 -8 -10
9 -14 8 -14 -3 0 -8 4 -15 8 -15 4 0 7 -9 6 -19 0 -11 -4 -18 -8 -15 -4 2 -9
-3 -12 -11 -4 -8 -1 -12 6 -9 8 3 13 -5 14 -18 0 -13 -1 -17 -4 -10 -3 6 -11
12 -20 12 -12 0 -12 -3 2 -16 19 -19 4 -36 -24 -27 -12 3 -12 2 2 -7 9 -6 14
-16 11 -22 -4 -7 -2 -8 5 -4 6 4 9 11 7 15 -3 4 1 8 8 8 7 0 13 -6 13 -13 0
-7 -4 -11 -8 -9 -4 3 -6 -34 -5 -83 2 -48 1 -81 -1 -74 -3 6 -9 12 -15 12 -7
0 -7 -5 1 -13 6 -8 8 -17 4 -21 -4 -4 1 -4 12 0 16 6 18 5 8 -7 -7 -7 -13 -20
-13 -28 0 -13 2 -14 9 -2 7 10 9 7 8 -12 -1 -14 -5 -23 -9 -20 -5 2 -8 -1 -8
-6 0 -6 6 -11 13 -11 8 0 7 -4 -3 -10 -13 -9 -13 -10 0 -11 8 -1 19 -1 24 0 5
1 5 -4 -1 -11 -15 -19 -24 -50 -13 -43 5 3 12 -12 16 -34 4 -22 9 -40 13 -39
25 3 31 -2 19 -16 -10 -11 -16 -11 -28 -2 -13 9 -13 9 -2 -6 8 -9 21 -15 30
-12 9 3 6 -2 -8 -10 l-25 -16 28 4 c33 6 35 -1 5 -14 -16 -6 -18 -9 -7 -9 9
-1 19 -8 23 -16 3 -9 12 -12 23 -9 15 5 15 4 3 -4 -8 -6 -18 -8 -22 -6 -4 3
-8 0 -8 -5 0 -6 7 -11 15 -11 18 0 20 -27 3 -32 -8 -3 -6 -7 5 -11 9 -3 19 -1
23 5 5 7 2 8 -6 3 -9 -5 -11 -4 -6 4 4 6 12 9 17 5 5 -3 7 -10 4 -15 -4 -5 6
-24 20 -43 16 -21 22 -37 16 -41 -6 -3 -11 -11 -11 -16 0 -6 4 -8 9 -5 5 3 12
-1 15 -10 3 -8 10 -13 15 -10 4 3 7 -8 5 -24 -2 -17 1 -30 7 -30 6 0 7 -5 4
-10 -4 -6 -1 -9 7 -8 7 2 12 -2 11 -9 -2 -8 4 -10 14 -6 10 4 14 2 10 -4 -10
-16 3 -43 19 -43 8 0 14 5 14 11 0 5 -4 8 -9 4 -5 -3 -12 -1 -15 4 -4 5 1 8 9
7 22 -3 29 -14 18 -28 -7 -8 -7 -21 -2 -33 8 -18 9 -17 5 4 -4 18 -2 21 6 13
11 -11 18 -31 20 -59 1 -7 5 -10 10 -7 4 3 3 14 -2 25 -7 13 -7 19 0 19 5 0
10 -7 10 -15 0 -7 8 -18 17 -24 15 -8 15 -11 3 -26 -7 -9 -9 -15 -4 -14 14 4
64 -23 64 -35 0 -6 -5 -5 -12 2 -7 7 -16 12 -22 12 -5 0 -1 -6 9 -14 11 -8 24
-12 28 -9 5 3 7 -1 5 -9 -2 -7 8 -27 21 -43 13 -17 21 -22 18 -13 -4 12 -2 15
8 11 8 -3 12 -9 9 -14 -3 -5 0 -9 5 -9 6 0 11 5 11 10 0 6 4 10 8 10 5 0 9 -7
9 -15 0 -8 -4 -12 -9 -9 -4 3 -8 0 -8 -5 0 -6 7 -12 15 -12 8 -1 21 -2 28 -3
6 0 13 -7 13 -13 1 -7 2 -21 3 -30 1 -16 3 -16 11 -3 8 13 10 13 10 -2 0 -9
-6 -18 -12 -21 -7 -3 -4 -5 7 -6 58 -2 59 -3 39 -18 -26 -19 -3 -16 26 4 18
12 22 13 14 3 -22 -30 -23 -46 -1 -47 12 -1 28 3 37 10 8 6 12 8 8 3 -4 -5 1
-20 12 -34 11 -13 17 -28 14 -34 -3 -5 6 -7 20 -4 14 3 28 1 31 -4 3 -5 -3 -7
-15 -5 -11 2 -22 0 -24 -4 -3 -4 10 -7 30 -6 19 1 43 -4 52 -11 21 -16 32 -17
32 -3 0 5 -4 8 -8 5 -4 -2 -13 3 -19 13 -8 13 -7 17 8 17 9 0 15 -5 12 -10 -3
-5 -2 -6 4 -3 5 4 10 21 11 38 0 18 7 36 14 40 7 5 8 9 2 9 -6 0 -14 -3 -18
-7 -10 -10 -46 -11 -40 -1 4 5 12 7 20 4 21 -8 27 11 7 24 -17 11 -17 11 1 6
16 -6 18 -2 11 30 -5 28 -3 34 7 28 9 -5 8 -2 -2 10 -15 19 -23 69 -10 61 9
-6 20 32 12 40 -15 14 -11 45 6 45 15 1 15 2 -3 16 -20 16 -20 16 3 9 16 -5
22 -2 22 10 0 10 5 13 12 9 7 -5 8 -3 3 5 -5 9 -10 10 -18 2 -6 -6 -15 -11
-21 -11 -5 0 4 12 20 26 16 15 24 24 18 20 -7 -3 -14 0 -17 8 -6 16 1 26 17
26 6 0 4 -5 -4 -11 -13 -9 -13 -10 0 -6 8 2 14 12 14 21 -1 9 4 16 11 16 7 0
19 8 26 18 11 14 11 15 -1 5 -18 -17 -27 -16 -27 2 0 8 5 11 10 8 6 -4 8 0 4
10 -3 9 -2 16 2 14 5 -1 8 1 7 4 -3 14 27 37 44 34 11 -2 19 -1 17 3 -3 11 41
51 48 44 4 -4 5 0 3 8 -1 8 3 14 10 12 9 -2 10 3 3 16 -8 14 -4 22 20 37 16
11 29 27 29 35 0 10 3 11 8 4 10 -15 39 -14 39 2 0 7 -6 10 -14 7 -7 -3 -13
-1 -13 5 0 11 18 11 37 -1 6 -4 15 -2 19 4 4 8 3 9 -4 5 -7 -4 -12 -3 -12 3 0
15 23 26 28 13 2 -8 8 -7 19 3 8 8 19 13 24 10 5 -4 9 -2 9 3 0 19 -14 21 -34
5 -20 -17 -21 -17 -3 2 9 11 27 20 40 20 15 0 22 6 21 18 -2 15 1 16 14 5 13
-11 15 -10 9 4 -3 10 -1 20 5 24 7 4 8 3 4 -4 -4 -7 -2 -12 4 -12 6 0 8 -5 4
-12 -4 -7 -3 -8 5 -4 6 4 9 12 6 17 -4 5 2 9 12 9 17 1 16 2 -2 16 -20 16 -19
16 4 9 16 -5 21 -4 17 4 -11 18 6 13 20 -6 12 -17 13 -16 8 3 -3 12 1 26 12
35 16 13 16 12 5 -11 l-12 -25 18 23 c15 18 21 20 31 10 11 -11 13 -10 10 2
-2 10 4 14 17 12 16 -2 17 -1 5 7 -8 5 -18 7 -22 5 -4 -3 -8 0 -8 7 0 7 8 9
21 6 17 -5 18 -3 7 11 -7 9 -8 13 -3 10 13 -8 36 17 27 28 -4 5 3 0 16 -11 22
-18 23 -18 16 0 -5 12 -4 16 4 11 6 -3 14 -1 19 6 11 19 13 39 2 32 -5 -3 -7
-9 -4 -14 3 -5 1 -11 -5 -15 -5 -3 -10 1 -10 9 0 18 40 46 68 49 16 1 18 5 12
17 -6 11 -5 17 3 17 7 0 25 8 40 18 20 12 25 21 17 30 -13 16 0 28 17 14 16
-14 18 2 2 18 -9 9 -6 10 12 6 24 -6 24 -6 5 15 -18 21 -18 21 10 16 28 -4 28
-4 9 11 -19 16 -19 16 7 11 20 -3 25 -1 21 10 -3 8 -10 11 -16 7 -6 -3 -7 -1
-3 6 6 9 11 9 21 1 11 -9 13 -6 11 15 -2 14 1 28 6 31 4 3 6 9 3 14 -3 5 -1
11 4 14 4 3 8 -4 7 -16 0 -12 5 -22 12 -24 7 -1 8 0 3 2 -6 3 -7 12 -4 20 3 7
10 11 17 7 6 -3 3 3 -7 14 -14 16 -15 23 -6 29 7 4 10 3 5 -4 -4 -6 1 -10 13
-9 15 1 17 4 9 14 -8 10 -7 12 4 8 9 -4 15 0 15 10 0 9 -6 14 -14 11 -7 -3
-13 -3 -13 0 0 2 12 9 26 14 14 6 23 14 19 19 -3 6 3 14 12 20 11 6 13 11 5
11 -7 0 -10 4 -7 10 3 5 0 7 -8 4 -8 -3 -18 -1 -22 5 -3 6 0 9 7 6 8 -3 22 2
33 11 11 8 14 12 6 8 -9 -5 -12 -3 -7 5 4 6 2 19 -6 28 -7 10 -8 14 -1 10 6
-4 13 -4 16 0 2 5 2 3 1 -4 -2 -6 5 -17 14 -25 15 -11 15 -11 6 2 -12 16 0 82
14 77 4 -1 8 3 9 8 1 6 -6 9 -15 8 -10 -1 -11 0 -4 3 6 3 10 9 7 14 -6 9 15 8
31 -2 6 -4 11 -1 11 7 0 8 -4 12 -9 9 -12 -8 -10 10 4 24 8 8 8 15 -3 28 -12
15 -12 17 0 9 11 -6 13 -4 8 9 -6 14 -3 17 9 12 10 -4 14 -2 11 6 -2 7 0 21 4
30 6 11 5 19 -3 24 -6 4 -8 3 -4 -4 3 -6 2 -13 -3 -16 -7 -5 -8 8 -2 32 1 1
10 -2 21 -8 16 -9 18 -8 14 5 -4 8 -9 15 -13 15 -3 0 -7 14 -7 31 -1 20 1 27
6 18 5 -7 7 -16 4 -20 -10 -16 15 -18 27 -2 10 12 10 15 1 9 -18 -11 -27 21
-11 41 12 15 12 16 -3 10 -10 -3 -18 -2 -18 3 0 6 9 10 19 10 10 0 22 7 25 16
5 13 3 14 -7 6 -9 -8 -17 -8 -27 0 -12 8 -12 9 3 4 15 -5 17 -2 12 14 -4 12
-2 20 5 20 6 0 8 -5 4 -12 -5 -7 -3 -8 5 -4 7 5 10 11 7 14 -3 3 1 14 11 24 9
10 13 18 8 18 -4 0 -13 -7 -20 -17 -9 -13 -14 -13 -20 -3 -5 8 -4 11 2 7 6 -4
13 0 17 8 3 8 0 15 -6 15 -7 0 -3 6 8 14 15 11 22 12 34 3 12 -10 13 -9 4 3
-12 18 -12 59 0 79 6 9 5 12 -1 8 -6 -4 -14 1 -18 11 -13 27 -14 43 -4 36 5
-3 7 -9 4 -14 -3 -5 -1 -11 5 -15 5 -3 10 1 10 10 0 10 5 14 13 10 6 -4 5 -1
-4 7 -20 17 -21 88 -1 80 11 -4 11 -6 0 -13 -7 -5 -8 -9 -2 -9 21 0 24 14 7
33 -10 11 -12 17 -4 12 10 -6 12 -2 6 15 -5 15 -4 20 4 16 15 -10 14 7 -1 23
-11 10 -9 11 6 5 18 -7 18 -6 2 18 -13 20 -14 25 -2 25 8 0 13 -5 12 -11 -2
-6 -1 -8 1 -3 3 4 9 5 14 2 5 -4 6 1 3 9 -3 9 -11 16 -18 16 -6 0 -4 5 4 10 8
5 10 10 4 10 -6 0 -10 14 -10 30 0 19 4 29 11 26 8 -3 10 4 7 20 -2 14 -9 21
-16 17 -6 -4 -5 1 3 10 11 14 11 20 0 34 -10 11 -10 14 -1 9 6 -4 12 -3 12 3
0 5 -6 12 -12 14 -10 4 -10 6 -1 6 7 1 10 8 6 18 -5 13 -2 15 15 11 12 -4 20
-2 16 3 -3 5 -15 9 -27 10 -21 0 -21 1 -2 8 11 5 25 6 30 3 6 -3 7 -2 3 3 -4
4 -3 17 3 28 6 10 7 17 2 14 -5 -3 -15 -2 -23 4 -13 7 -12 9 2 9 9 0 20 6 24
13 4 6 4 9 -1 5 -5 -5 -15 1 -23 13 -11 16 -12 23 -3 32 9 9 11 8 6 -5 -4 -10
-3 -18 3 -18 6 0 9 8 7 18 -2 9 -4 22 -5 27 0 6 -8 19 -16 30 l-15 20 -16 -20
c-13 -16 -15 -17 -10 -2 7 18 -8 24 -18 7 -3 -5 -12 -10 -18 -9 -9 0 -9 2 1 6
14 6 16 29 2 38 -6 4 -7 -1 -3 -11 5 -14 3 -15 -18 -3 -13 7 -25 12 -26 11 -2
-1 -4 -2 -5 -1 -14 4 -60 6 -50 2 20 -8 14 -22 -8 -16 -11 3 -20 10 -20 15 0
5 -4 6 -10 3 -5 -3 -10 -11 -10 -16 0 -6 4 -8 9 -5 5 3 15 -2 22 -11 12 -15
12 -16 -1 -8 -8 6 -26 10 -40 11 -41 3 -70 15 -63 28 4 7 1 7 -8 -1 -12 -10
-18 -10 -28 0 -11 10 -11 8 -2 -10 6 -13 8 -23 3 -23 -5 0 -14 10 -21 23 -6
12 -10 15 -7 5 4 -14 0 -15 -26 -7 -30 8 -30 8 -12 -13 l19 -21 -28 18 c-16
10 -26 24 -23 31 3 8 3 14 0 14 -2 0 -7 -7 -11 -16z m305 -17 c-1 -2 4 -12 12
-23 14 -19 14 -19 -7 0 -13 10 -20 23 -17 28 3 5 8 7 11 4 2 -2 3 -6 1 -9z
m-294 -13 c3 -8 2 -12 -4 -9 -6 3 -10 10 -10 16 0 14 7 11 14 -7z m150 -13
c-2 -3 -12 3 -22 13 -16 17 -16 18 5 5 12 -7 20 -15 17 -18z m285 -25 c0 -7
-2 -6 -6 2 -2 6 -8 10 -12 8 -4 -3 -8 1 -8 9 0 11 4 12 14 4 7 -6 13 -17 12
-23z m-714 4 c3 -5 1 -10 -4 -10 -6 0 -11 5 -11 10 0 6 2 10 4 10 3 0 8 -4 11
-10z m-128 -32 c-3 -8 -6 -5 -6 6 -1 11 2 17 5 13 3 -3 4 -12 1 -19z m853 -88
c0 -5 -7 -7 -15 -4 -8 4 -15 8 -15 10 0 2 7 4 15 4 8 0 15 -4 15 -10z m-1173
-32 c-3 -8 -6 -5 -6 6 -1 11 2 17 5 13 3 -3 4 -12 1 -19z m-321 -180 c5 -7 3
-8 -6 -3 -10 6 -12 4 -7 -8 4 -11 2 -14 -9 -10 -11 4 -12 9 -3 19 14 17 16 17
25 2z m-119 -93 c0 -8 -4 -12 -9 -9 -5 3 -6 10 -3 15 9 13 12 11 12 -6z m-150
-180 c-7 -7 -14 -9 -15 -4 -2 5 -9 6 -15 2 -7 -4 -7 0 1 9 8 9 20 14 27 12 11
-5 12 -9 2 -19z m1679 -70 c1 -8 -1 -17 -5 -19 -4 -3 -7 6 -7 19 0 25 8 25 12
0z m4 -39 c0 -3 -4 -8 -10 -11 -5 -3 -10 -1 -10 4 0 6 5 11 10 11 6 0 10 -2
10 -4z m-1792 -20 c-7 -8 -17 -12 -22 -9 -4 3 -2 9 5 14 22 13 31 11 17 -5z
m-251 -521 c0 -8 -4 -15 -9 -15 -10 0 -11 14 -1 23 9 10 10 9 10 -8z m1834
-74 c-7 -5 -11 -13 -8 -18 3 -5 0 -10 -8 -10 -10 0 -11 5 -4 19 5 10 15 18 22
18 8 0 8 -3 -2 -9z m-1110 -150 c-8 -5 -11 -16 -8 -24 4 -11 -1 -14 -19 -12
-14 1 -28 6 -32 10 -4 4 3 5 14 1 16 -5 23 -2 27 14 3 11 11 20 19 20 10 0 10
-2 -1 -9z m-18 -68 c-13 -9 -23 -22 -23 -30 0 -13 -2 -13 -17 -2 -14 12 -16
12 -8 0 6 -10 4 -12 -5 -6 -9 5 -11 4 -6 -4 4 -6 12 -9 17 -6 5 4 12 0 15 -9
3 -8 13 -12 22 -9 14 4 15 3 2 -5 -10 -8 -19 -7 -29 1 -12 10 -12 9 -1 -10 8
-12 18 -20 22 -17 4 3 5 -3 1 -12 -4 -11 -8 -13 -11 -6 -5 15 -29 16 -38 0 -5
-8 -2 -9 10 -5 10 4 15 3 11 -3 -3 -6 0 -10 7 -11 10 0 10 -2 0 -6 -6 -2 -10
-9 -6 -14 3 -5 0 -9 -6 -9 -7 0 -9 7 -5 18 5 13 4 14 -6 5 -10 -10 -9 -17 6
-33 16 -18 17 -20 2 -14 -9 3 -17 2 -17 -4 0 -5 7 -13 15 -16 13 -5 14 -10 4
-28 -7 -13 -13 -25 -13 -28 -1 -3 -7 -4 -13 -4 -7 1 -13 -2 -13 -7 0 -5 5 -9
10 -9 6 0 10 -5 10 -11 0 -5 -6 -7 -12 -3 -7 4 -10 4 -6 -1 4 -4 2 -15 -5 -24
-11 -14 -10 -14 6 -2 11 9 17 10 17 2 0 -6 -6 -14 -14 -17 -20 -8 -27 -31 -10
-31 7 0 11 4 8 9 -3 4 3 5 12 1 16 -6 15 -8 -4 -16 -20 -9 -21 -11 -4 -24 16
-12 15 -13 -3 -6 -18 6 -19 5 -5 -12 13 -17 13 -18 -1 -13 -9 4 -16 1 -16 -8
0 -7 4 -11 9 -8 4 3 8 0 8 -7 0 -8 5 -7 18 2 15 12 16 12 5 -2 -7 -9 -9 -19
-5 -24 4 -4 -2 -3 -14 3 -16 9 -21 8 -21 -3 0 -8 4 -12 9 -9 4 3 8 0 8 -6 0
-6 4 -9 8 -6 5 3 9 -1 9 -9 0 -10 -4 -12 -12 -5 -9 8 -14 6 -19 -5 -3 -9 -2
-14 3 -11 5 3 12 -1 15 -10 3 -8 11 -12 17 -8 8 4 9 3 5 -5 -6 -9 -11 -9 -21
-1 -9 8 -14 6 -19 -5 -3 -9 -2 -13 4 -10 6 3 10 1 10 -5 0 -6 6 -8 13 -4 7 4
9 3 4 -2 -5 -5 -13 -9 -19 -9 -6 0 -12 -8 -14 -17 -1 -10 2 -18 7 -18 5 0 9
-9 9 -20 0 -11 -4 -20 -10 -20 -5 0 -10 -4 -10 -10 0 -6 3 -9 8 -9 21 4 33 -2
29 -13 -2 -7 3 -22 12 -33 15 -18 15 -19 -1 -6 -13 10 -18 10 -18 2 0 -7 -5
-9 -12 -5 -9 5 -9 2 1 -9 7 -9 20 -17 28 -17 8 0 11 -5 8 -10 -4 -6 -10 -8
-15 -5 -5 3 -12 0 -16 -6 -4 -8 -3 -9 4 -5 7 4 12 2 12 -4 0 -6 4 -9 9 -5 10
5 6 -33 -3 -43 -3 -2 2 -11 10 -19 8 -8 12 -19 9 -24 -4 -5 -1 -9 6 -9 6 0 1
-9 -12 -21 -13 -11 -18 -18 -11 -14 6 3 12 1 12 -5 0 -6 8 -10 17 -8 12 2 17
-5 18 -24 1 -15 8 -35 16 -45 13 -16 12 -17 -3 -4 -13 9 -18 10 -18 2 0 -7 -4
-10 -9 -7 -11 7 -8 -20 3 -31 4 -4 6 -3 4 2 -3 10 4 15 24 15 6 0 3 -6 -7 -14
-11 -8 -25 -11 -33 -9 -17 7 -12 59 6 56 6 -2 12 2 12 7 0 14 -28 12 -32 -2
-3 -9 -10 -8 -23 5 -13 13 -14 18 -4 15 14 -3 19 2 19 21 0 14 -29 21 -36 9
-4 -6 -3 -8 4 -4 6 3 13 2 16 -3 3 -5 -3 -11 -13 -14 -15 -4 -19 0 -16 15 2
10 0 30 -5 42 -5 14 -5 27 0 32 5 5 5 15 0 24 -5 8 -12 11 -17 7 -4 -5 -1 -12
7 -17 10 -6 11 -10 3 -10 -7 0 -17 10 -24 21 -8 15 -8 19 0 15 6 -4 11 -2 11
3 0 6 -5 11 -11 11 -5 0 -7 5 -4 10 4 6 11 7 17 4 7 -4 8 -2 4 5 -4 6 -12 8
-18 5 -8 -5 -9 -1 -4 12 11 26 16 65 7 60 -4 -3 -13 -1 -21 5 -12 6 -12 9 -2
9 10 0 9 4 -2 16 -9 8 -14 20 -11 25 4 5 0 9 -7 9 -10 0 -10 2 1 9 9 6 10 11
2 15 -6 4 -8 12 -5 18 5 7 12 4 21 -7 7 -11 13 -14 13 -9 0 6 -5 15 -12 22 -9
9 -7 17 8 34 l19 23 -25 -22 c-24 -21 -26 -21 -26 -3 0 10 4 16 8 14 4 -3 8 2
8 10 0 10 6 13 16 9 9 -3 5 6 -10 22 -14 15 -24 35 -22 44 6 33 18 51 30 44 6
-4 4 2 -4 12 -14 17 -13 18 2 12 10 -3 20 -1 24 5 4 6 3 8 -3 5 -6 -4 -18 0
-28 7 -14 10 -15 15 -5 21 9 6 11 4 5 -5 -5 -9 -4 -11 3 -6 9 5 8 13 -2 29
-13 19 -13 25 3 44 10 12 20 20 23 18 2 -2 5 5 5 17 2 16 -1 18 -10 9 -6 -6
-16 -11 -21 -11 -6 0 -3 5 7 11 15 9 16 13 5 27 -12 15 -11 16 5 3 20 -16 23
-1 7 30 -6 11 -7 19 -3 18 23 -4 35 2 29 16 -3 10 1 15 12 16 9 0 12 3 5 5 -7
3 -9 12 -6 21 5 12 3 14 -8 8 -10 -7 -10 -2 3 17 12 18 14 28 6 36 -10 10 -5
10 31 3 2 -1 -2 -8 -9 -16 -9 -10 -9 -15 -1 -15 6 0 11 5 11 11 0 5 5 7 10 4
6 -4 5 4 -1 19 -7 14 -17 23 -23 19 -6 -3 -1 5 12 19 12 13 19 28 15 33 -5 4
-2 5 5 1 6 -4 12 -3 12 2 0 5 12 9 28 9 l27 0 -22 -14z m17 -16 c0 -2 -9 -12
-20 -22 -24 -21 -27 -14 -4 9 15 15 24 20 24 13z m884 -95 c3 -5 -1 -9 -9 -9
-8 0 -12 4 -9 9 3 4 7 8 9 8 2 0 6 -4 9 -8z m-200 -191 c4 -5 -3 -7 -14 -4
-23 6 -26 13 -6 13 8 0 17 -4 20 -9z m-1344 -111 c0 -5 -2 -10 -4 -10 -3 0 -8
5 -11 10 -3 6 -1 10 4 10 6 0 11 -4 11 -10z m476 -5 c-3 -23 -12 -26 -13 -5
-1 11 2 20 7 20 4 0 7 -7 6 -15z m-1 -114 c3 -5 2 -12 -3 -15 -5 -3 -9 1 -9 9
0 17 3 19 12 6z m468 -70 c-12 -10 -21 -20 -20 -22 1 -2 0 -3 -2 -1 -12 7 -8
30 5 25 8 -3 14 0 14 6 0 6 6 11 13 11 6 -1 2 -9 -10 -19z m-361 -9 c-7 -2
-10 -8 -6 -13 3 -5 3 -9 0 -9 -3 0 -10 9 -15 19 -9 17 -8 18 11 13 13 -3 17
-7 10 -10z m317 -38 c-6 -8 -15 -12 -18 -8 -3 4 0 9 7 11 6 3 9 10 6 15 -4 7
-2 8 5 4 9 -6 9 -11 0 -22z m-328 -17 c-10 -9 -11 -8 -5 6 3 10 9 15 12 12 3
-3 0 -11 -7 -18z m-416 -19 c5 4 5 1 1 -6 -6 -10 -11 -10 -22 -1 -8 6 -14 17
-14 23 0 6 7 3 14 -6 7 -10 17 -14 21 -10z m340 -63 c-5 15 -3 17 6 8 17 -17
1 -37 -17 -22 -8 6 -14 16 -14 22 0 6 7 2 16 -9 15 -19 16 -19 9 1z m-115
-210 c0 -2 -7 -1 -17 2 -12 5 -14 3 -8 -8 8 -12 6 -12 -8 0 -22 18 -11 34 14
21 10 -6 19 -13 19 -15z m375 -3 c-3 -3 -11 0 -18 7 -9 10 -8 11 6 5 10 -3 15
-9 12 -12z m-95 -106 c0 -8 -6 -17 -12 -20 -7 -3 -2 -3 11 0 17 4 22 2 19 -7
-3 -8 2 -20 11 -28 9 -7 4 -6 -11 3 -37 22 -45 20 -23 -4 10 -11 24 -20 32
-20 7 0 13 -5 13 -10 0 -13 -31 2 -49 24 -8 9 -18 13 -25 9 -6 -4 -5 0 2 9 15
18 0 34 -20 22 -7 -5 -8 -3 -4 5 5 7 14 10 22 7 8 -3 14 1 14 9 0 8 5 15 10
15 6 0 10 -6 10 -14z m-85 -76 c-3 -5 -12 -10 -18 -10 -7 0 -6 4 3 10 19 12
23 12 15 0z m159 -59 c-2 -3 -12 3 -22 13 -16 17 -16 18 5 5 12 -7 20 -15 17
-18z"/>
<path d="M4719 6253 c-13 -16 -12 -17 4 -4 9 7 17 15 17 17 0 8 -8 3 -21 -13z"/>
<path d="M4630 6051 c0 -6 4 -13 10 -16 6 -3 7 1 4 9 -7 18 -14 21 -14 7z"/>
<path d="M4687 6030 c-3 -11 0 -23 6 -27 7 -3 9 -3 5 2 -4 4 -3 16 3 26 5 11
6 19 1 19 -6 0 -12 -9 -15 -20z"/>
<path d="M4600 5930 c-9 -6 -10 -10 -3 -10 6 0 15 5 18 10 8 12 4 12 -15 0z"/>
<path d="M4610 5910 c-9 -6 -10 -10 -3 -10 6 0 15 5 18 10 8 12 4 12 -15 0z"/>
<path d="M4589 5807 c-9 -26 -5 -45 11 -55 14 -8 21 -9 26 0 4 6 3 8 -3 5 -6
-4 -16 0 -23 8 -11 14 -7 19 13 16 13 -2 7 17 -8 23 -8 3 -15 4 -16 3z"/>
<path d="M4615 5590 c-4 -6 -11 -7 -17 -4 -7 4 -8 2 -4 -5 6 -9 11 -9 22 0 14
11 18 19 10 19 -3 0 -8 -5 -11 -10z"/>
<path d="M4662 5563 c-6 -2 -10 -9 -6 -14 8 -14 21 -11 21 6 0 8 -1 15 -1 14
-1 0 -7 -3 -14 -6z"/>
<path d="M4693 5380 c-1 -11 2 -20 7 -20 4 0 7 7 6 15 -3 23 -12 26 -13 5z"/>
<path d="M4655 5370 c3 -5 8 -10 11 -10 2 0 4 5 4 10 0 6 -5 10 -11 10 -5 0
-7 -4 -4 -10z"/>
<path d="M4725 5311 c-3 -5 -2 -12 3 -15 5 -3 9 1 9 9 0 17 -3 19 -12 6z"/>
<path d="M5897 7873 c-11 -11 -8 -20 7 -20 8 0 12 6 9 14 -6 15 -7 15 -16 6z"/>
<path d="M5131 7748 c-1 -20 -16 -24 -24 -8 -3 6 -4 5 -3 -2 4 -19 20 -20 41
-2 11 8 15 13 8 10 -6 -4 -14 0 -16 6 -3 8 -6 6 -6 -4z"/>
<path d="M6153 7615 c0 -8 4 -15 9 -15 4 0 8 4 8 9 0 6 -4 12 -8 15 -5 3 -9
-1 -9 -9z"/>
<path d="M4740 7545 c-7 -8 -17 -12 -23 -8 -6 3 -7 1 -3 -5 8 -14 46 2 46 18
0 14 -6 12 -20 -5z"/>
<path d="M6140 7471 c0 -6 4 -13 10 -16 6 -3 7 1 4 9 -7 18 -14 21 -14 7z"/>
<path d="M6136 7323 c-6 -14 -5 -15 5 -6 7 7 10 15 7 18 -3 3 -9 -2 -12 -12z"/>
<path d="M6125 7250 c-4 -6 -10 -8 -14 -6 -4 3 -8 -1 -8 -9 0 -21 10 -19 25 5
7 11 10 20 8 20 -3 0 -8 -5 -11 -10z"/>
<path d="M3975 7060 c-4 -6 -11 -8 -16 -5 -5 4 -9 2 -9 -2 0 -5 -7 -18 -15
-29 -14 -18 -14 -18 -10 3 2 13 -1 25 -6 29 -5 3 -9 2 -8 -3 4 -21 -2 -43 -12
-43 -5 0 -8 4 -4 9 3 5 1 13 -5 16 -6 4 -9 1 -8 -7 2 -7 -3 -12 -10 -10 -8 1
-11 -2 -7 -8 3 -6 11 -7 17 -4 7 4 8 2 4 -4 -5 -9 -13 -9 -26 -2 -28 15 -37
12 -14 -5 18 -13 18 -14 -8 -9 -15 2 -29 0 -33 -6 -3 -5 0 -7 8 -4 8 3 17 1
21 -4 5 -9 -9 -13 -56 -14 -16 0 -28 -5 -28 -10 0 -5 5 -6 10 -3 6 3 10 -1 10
-9 0 -8 -5 -18 -12 -22 -6 -4 -8 -3 -5 3 4 6 0 13 -8 17 -8 3 -17 0 -21 -6 -4
-7 -3 -8 4 -4 7 4 12 3 12 -2 0 -5 -12 -14 -26 -20 -14 -7 -23 -16 -19 -21 3
-5 0 -13 -6 -17 -7 -4 -9 -3 -6 2 3 6 -3 16 -15 23 -11 7 -17 8 -14 2 4 -5 2
-12 -3 -16 -6 -3 -7 -13 -4 -23 6 -14 4 -15 -8 -5 -12 9 -18 10 -27 1 -8 -8
-16 -8 -28 3 -15 12 -15 10 2 -16 18 -30 18 -30 -1 -15 -15 12 -17 12 -10 1 6
-11 3 -13 -13 -9 -12 4 -25 2 -28 -3 -3 -5 -10 -6 -16 -3 -7 4 -8 2 -4 -5 6
-9 11 -9 24 1 13 11 14 11 10 -2 -3 -8 -15 -15 -26 -14 -18 0 -20 -2 -9 -15
10 -12 9 -14 -5 -8 -17 6 -24 -8 -19 -36 1 -5 -3 -6 -7 -3 -5 3 -17 -3 -27
-13 -9 -11 -26 -18 -36 -16 -11 2 -28 -4 -38 -14 -10 -10 -25 -17 -34 -15 -12
2 -14 -3 -7 -20 6 -17 5 -23 -6 -23 -8 0 -13 6 -10 13 3 8 2 15 -2 18 -13 8
-12 -37 1 -54 10 -12 10 -13 -3 -4 -13 9 -23 10 -47 5 -5 -1 1 -8 12 -17 19
-14 19 -15 -5 -12 -21 3 -25 -1 -22 -20 2 -21 0 -22 -13 -8 -14 13 -45 13 -45
-1 0 -3 7 -3 15 1 8 3 15 1 15 -4 0 -13 -36 -31 -46 -22 -5 4 -2 -2 6 -12 14
-18 14 -19 -10 -6 -23 12 -24 12 -11 -3 12 -15 11 -17 -5 -18 -11 -1 -22 -1
-26 0 -4 0 -5 -5 -2 -13 3 -8 0 -17 -7 -22 -7 -4 -10 -3 -5 4 3 6 2 14 -4 17
-6 4 -10 3 -9 -2 4 -22 -2 -35 -15 -30 -10 4 -13 1 -9 -8 3 -8 9 -13 13 -10 5
3 12 1 15 -5 4 -6 3 -10 -2 -9 -16 4 -43 -13 -37 -25 3 -6 -2 -2 -12 9 -16 20
-16 20 -11 -3 4 -18 2 -22 -9 -18 -9 3 -12 1 -9 -4 3 -6 2 -10 -4 -10 -6 0 -7
-7 -4 -17 4 -11 3 -14 -5 -9 -11 6 -17 -12 -13 -37 1 -5 -3 -6 -9 -2 -6 3 -8
11 -5 16 3 5 -1 6 -10 3 -12 -5 -13 -10 -6 -17 6 -6 11 -15 11 -20 0 -5 -7 -1
-16 7 -8 9 -20 16 -27 16 -6 0 -2 -6 9 -14 18 -14 18 -15 -10 -25 -23 -9 -26
-14 -16 -26 7 -8 17 -12 24 -8 6 3 7 2 3 -2 -10 -11 -39 -16 -32 -5 3 4 -1 10
-9 13 -16 6 -11 -28 8 -53 10 -13 9 -13 -6 -1 -12 9 -18 10 -18 2 0 -6 -9 -11
-19 -11 -11 0 -23 -5 -27 -12 -5 -8 -2 -9 12 -4 10 4 15 4 11 0 -4 -4 -1 -14
6 -22 10 -13 9 -14 -3 -7 -8 5 -24 10 -35 12 -11 1 -14 -1 -7 -3 6 -3 12 -10
12 -15 0 -6 -6 -7 -12 -3 -8 5 -7 0 2 -11 9 -11 10 -16 3 -11 -12 7 -18 -5
-14 -28 1 -5 -4 -4 -13 3 -18 15 -34 -5 -17 -22 9 -9 11 -7 6 8 -5 15 -4 17 3
6 7 -10 6 -21 -6 -37 -10 -12 -20 -20 -23 -18 -4 2 -12 -2 -18 -9 -8 -10 -7
-14 4 -14 8 0 11 5 8 10 -4 6 -1 7 7 2 10 -6 9 -11 -4 -20 -9 -7 -16 -17 -14
-21 5 -18 -22 -53 -37 -48 -8 4 -12 11 -8 17 3 6 1 7 -5 3 -21 -13 0 -40 28
-38 3 0 6 -8 6 -19 0 -16 -3 -17 -11 -7 -11 15 -36 22 -34 11 4 -23 -2 -43
-11 -38 -6 3 -7 -1 -4 -9 3 -9 10 -13 15 -10 5 3 6 -2 3 -10 -3 -9 -10 -13
-15 -10 -5 3 -6 -2 -3 -10 4 -11 0 -16 -15 -16 -12 0 -21 -5 -21 -11 0 -6 6
-9 13 -6 9 3 13 -2 12 -16 -2 -17 -8 -21 -26 -19 -16 1 -20 -1 -11 -6 7 -5 14
-15 15 -23 2 -8 6 -19 10 -26 4 -6 3 -15 -3 -18 -8 -5 -7 -12 2 -23 12 -15 11
-16 -5 -3 -13 10 -15 17 -6 27 8 10 8 14 0 14 -6 0 -11 -5 -11 -11 0 -5 -6 -7
-12 -3 -10 5 -10 4 -1 -6 10 -11 10 -17 -2 -30 -13 -14 -13 -17 0 -17 8 0 12
4 9 9 -3 4 -1 8 4 8 6 0 13 -7 16 -16 3 -8 2 -12 -4 -9 -13 8 -13 -8 0 -21 7
-7 6 -11 -4 -11 -8 0 -13 4 -10 8 2 4 0 10 -5 14 -6 3 -8 -6 -5 -21 3 -14 0
-31 -5 -38 -11 -13 5 -39 29 -49 10 -4 8 -6 -7 -6 -33 -1 -36 -17 -8 -39 13
-11 21 -22 18 -26 -10 -10 -23 -7 -21 5 2 6 -4 14 -12 16 -9 3 -11 1 -4 -4 5
-4 10 -31 9 -60 0 -28 2 -50 6 -47 4 2 12 -3 18 -10 10 -11 7 -18 -11 -30 -12
-9 -17 -16 -10 -16 6 0 11 -6 10 -12 -2 -8 5 -12 16 -10 17 3 18 2 7 -12 -9
-11 -10 -16 -2 -16 6 0 10 -3 9 -7 -1 -5 3 -18 10 -30 11 -19 10 -22 -3 -17
-8 3 -12 10 -9 15 3 5 0 9 -5 9 -18 0 -12 -18 9 -33 15 -10 19 -22 16 -41 -3
-14 -1 -24 3 -21 5 2 7 -10 6 -28 -3 -36 10 -67 28 -67 8 0 7 4 -3 10 -8 5
-11 12 -7 16 4 4 2 13 -4 20 -8 9 -7 18 1 31 10 16 10 15 5 -4 -4 -15 -2 -23
5 -23 7 0 10 -7 6 -15 -3 -8 2 -19 11 -24 14 -7 13 -10 -6 -16 -21 -6 -21 -8
-5 -19 9 -7 14 -18 11 -23 -4 -6 3 -19 16 -29 21 -19 21 -19 7 0 -14 18 -14
19 9 7 13 -7 19 -16 14 -20 -5 -3 -13 -15 -16 -25 -7 -17 -6 -17 10 -5 14 12
16 12 8 0 -6 -11 -4 -13 8 -8 11 4 15 1 12 -13 -2 -11 0 -22 5 -25 5 -3 7 -20
5 -38 -3 -23 -2 -28 5 -17 9 13 10 13 10 0 0 -13 1 -13 10 0 8 13 10 12 10 -3
0 -10 5 -15 10 -12 6 4 10 3 9 -2 -4 -21 2 -34 13 -27 6 4 8 3 4 -4 -3 -6 -2
-13 4 -17 6 -4 8 -11 5 -16 -4 -5 -1 -9 4 -9 6 0 10 -3 10 -7 -4 -23 3 -35 15
-30 10 4 13 1 9 -8 -3 -8 -10 -12 -17 -8 -6 3 -3 -3 7 -14 9 -11 14 -23 10
-28 -5 -4 -3 -5 3 -2 18 10 56 -27 42 -41 -8 -8 -5 -9 11 -5 19 5 23 0 20 -24
0 -4 9 -10 20 -15 12 -4 21 -15 21 -24 0 -13 3 -14 14 -5 12 10 13 8 9 -10 -6
-21 15 -43 42 -44 6 0 9 -9 7 -19 -2 -11 1 -15 7 -11 6 3 11 2 11 -4 0 -5 -3
-11 -7 -14 -5 -2 -3 -3 3 -1 12 2 45 -31 38 -39 -3 -2 2 -7 11 -10 8 -4 15 -1
15 6 0 8 3 7 9 -2 5 -8 7 -20 4 -28 -3 -7 0 -13 7 -13 6 0 8 -5 4 -12 -4 -7
-3 -8 4 -4 6 4 9 13 5 21 -3 8 -1 15 4 15 5 0 10 -15 11 -32 2 -18 8 -37 13
-43 8 -7 9 -3 4 15 l-7 25 17 -23 c9 -12 21 -19 27 -16 7 4 8 2 4 -5 -4 -6 0
-14 10 -18 15 -5 14 -8 -5 -22 -21 -16 -21 -17 -2 -17 11 0 17 4 15 8 -3 4 2
8 10 8 11 0 15 -8 12 -30 -2 -16 1 -27 6 -24 5 3 7 12 4 20 -3 7 -1 16 5 19 5
4 9 3 8 -2 -4 -26 2 -45 15 -40 9 4 12 -2 10 -19 -1 -13 2 -24 8 -24 6 0 7 8
4 17 -4 9 4 5 18 -10 14 -15 30 -27 36 -27 6 0 8 -6 4 -12 -6 -10 -5 -10 7 -1
13 10 16 10 17 -2 1 -8 3 -22 4 -30 1 -12 4 -12 17 -2 12 9 13 9 7 0 -4 -7 -3
-13 1 -13 5 0 15 6 22 13 11 10 11 8 1 -9 -12 -20 -9 -25 27 -60 40 -38 42
-38 57 -20 15 18 15 18 13 -2 0 -11 -6 -18 -12 -14 -5 3 -4 -2 4 -11 17 -21
32 -22 25 -2 -4 8 -2 15 3 15 5 0 10 -10 10 -22 1 -13 7 -24 13 -26 5 -2 10
-10 10 -18 0 -8 8 -14 18 -13 10 0 12 3 5 6 -17 6 -16 20 1 20 16 0 15 -25 -1
-35 -7 -5 -5 -12 5 -22 14 -13 15 -12 9 3 -10 26 1 21 38 -19 21 -22 32 -42
29 -52 -5 -15 -4 -15 6 0 13 21 32 24 24 5 -2 -7 4 -13 16 -15 43 -4 49 -6 44
-14 -3 -4 -14 -4 -24 2 -13 7 -21 7 -25 0 -4 -6 -3 -10 2 -9 20 4 33 -2 33
-15 0 -8 7 -17 16 -20 14 -5 15 -4 5 8 -9 11 -9 16 0 22 8 4 9 3 5 -4 -4 -7
-2 -12 5 -12 6 0 9 -8 6 -20 -4 -17 -2 -18 15 -9 15 8 19 8 14 0 -4 -6 -2 -11
5 -11 8 0 9 -3 0 -14 -9 -11 -6 -12 16 -8 22 4 25 2 20 -13 -5 -13 -3 -16 8
-11 14 5 20 -6 15 -29 -1 -5 2 -7 5 -3 10 10 47 -11 40 -22 -3 -5 0 -12 6 -16
8 -4 9 -3 5 4 -11 18 29 15 44 -3 7 -8 16 -12 21 -9 12 7 11 -3 -1 -26 -7 -13
-7 -21 2 -26 7 -4 8 -3 4 4 -4 7 -1 12 8 12 8 0 17 6 20 13 3 6 3 2 0 -11 -5
-21 -3 -22 28 -17 23 4 29 2 18 -4 -8 -5 -17 -8 -21 -5 -4 2 -10 1 -13 -4 -5
-9 5 -11 57 -14 21 -2 26 -6 21 -20 -3 -10 3 -24 15 -34 11 -10 18 -21 15 -25
-2 -4 6 -5 18 -1 21 5 22 4 9 -12 -8 -9 -11 -19 -7 -23 3 -3 6 -1 6 5 0 7 7
12 16 12 9 0 12 5 8 12 -4 7 -3 8 5 4 9 -6 9 -11 -1 -24 -12 -14 -10 -14 10
-3 18 9 22 9 20 -1 -2 -6 3 -12 11 -13 8 0 16 -7 18 -15 4 -12 3 -12 -5 -2 -7
11 -10 11 -15 -2 -4 -9 -3 -15 1 -15 18 3 35 -2 29 -8 -9 -8 12 -33 27 -33 7
0 6 4 -2 9 -10 6 -9 10 7 14 12 3 19 1 16 -3 -3 -5 -2 -15 1 -24 5 -13 9 -14
20 -5 8 7 17 9 21 5 3 -3 1 -6 -5 -6 -7 0 -12 -7 -12 -15 0 -8 5 -15 10 -15 6
0 10 5 10 12 0 6 3 8 6 5 4 -4 1 -14 -7 -23 -13 -16 -12 -16 8 -6 24 13 45 16
26 4 -17 -11 -1 -31 27 -35 20 -3 25 -10 23 -31 -1 -14 2 -26 8 -26 6 0 7 5 4
10 -3 6 1 10 10 10 9 0 13 -4 10 -10 -3 -6 -2 -10 4 -10 5 0 12 6 15 13 3 6 3
2 0 -10 -4 -18 -1 -23 15 -23 12 0 21 -5 21 -11 0 -5 -4 -8 -9 -4 -5 3 -13 0
-17 -6 -4 -8 -3 -9 4 -5 7 4 12 2 12 -5 0 -7 3 -9 7 -6 3 4 12 2 20 -4 10 -9
13 -8 13 1 0 8 3 10 6 7 4 -4 1 -13 -5 -21 -10 -12 -9 -14 7 -9 25 6 42 -35
21 -48 -10 -6 -10 -9 -2 -9 6 0 15 5 18 10 8 13 50 -15 50 -33 1 -6 7 -11 15
-9 12 3 13 1 3 -9 -18 -18 -16 -40 2 -33 8 4 12 11 8 17 -3 6 -1 7 6 3 9 -6 9
-11 0 -22 -8 -10 -8 -14 0 -14 6 0 11 -5 11 -11 0 -5 -4 -7 -10 -4 -5 3 -10 1
-10 -4 0 -6 5 -12 10 -12 6 -1 15 -3 20 -4 6 -1 16 -3 23 -4 7 -1 8 -4 2 -9
-14 -10 -19 -46 -6 -37 7 4 11 -4 11 -21 0 -22 3 -24 14 -15 10 8 16 9 21 1 4
-6 1 -9 -5 -8 -6 2 -19 -8 -28 -22 -9 -13 -12 -21 -5 -17 15 9 45 -2 37 -14
-3 -5 -10 -6 -16 -3 -13 8 -2 -13 21 -39 8 -10 10 -17 4 -15 -15 4 -17 -3 -9
-29 4 -13 13 -23 21 -23 16 0 8 -40 -9 -40 -6 0 -4 -5 5 -10 14 -8 16 -22 13
-77 -2 -36 -6 -69 -9 -71 -3 -3 1 -12 7 -20 18 -21 19 -42 1 -35 -12 5 -12 7
-1 14 10 7 9 9 -4 9 -10 0 -17 -8 -17 -20 -1 -11 -1 -30 -2 -42 0 -11 5 -24
12 -28 7 -5 4 -12 -11 -23 -15 -10 -18 -16 -8 -20 7 -2 10 -8 6 -12 -4 -4 -16
-2 -25 6 -16 13 -17 12 -4 -3 7 -10 10 -18 5 -18 -5 0 0 -8 11 -16 l20 -16
-20 6 c-26 7 -54 -8 -30 -17 10 -5 14 -3 9 5 -4 7 -3 8 5 4 6 -4 9 -12 5 -17
-3 -5 -9 -7 -13 -5 -4 3 -13 0 -21 -6 -12 -8 -12 -9 2 -5 12 4 16 0 15 -12 -1
-13 -7 -17 -22 -14 -16 4 -17 3 -6 -5 8 -6 16 -18 17 -27 1 -9 0 -14 -3 -11
-3 3 -12 -2 -20 -12 -12 -16 -13 -16 -7 3 5 20 5 20 -7 1 -9 -15 -9 -21 -1
-24 8 -2 4 -11 -10 -21 -26 -22 -32 -49 -9 -46 9 1 10 0 3 -2 -7 -3 -9 -9 -6
-15 4 -7 0 -6 -13 0 -15 9 -20 8 -20 -3 0 -8 4 -12 8 -10 4 3 6 -3 4 -12 -2
-10 -4 -22 -4 -26 -1 -5 -6 -5 -12 -1 -7 4 -8 9 -1 13 6 4 4 12 -6 21 -14 13
-15 12 -9 -3 3 -9 2 -19 -2 -22 -5 -3 -8 -18 -7 -35 2 -35 3 -35 -20 -13 -16
16 -16 16 -10 -5 8 -25 -16 -57 -36 -47 -7 4 -2 -2 12 -14 25 -20 10 -25 -20
-7 -8 5 -12 6 -8 1 4 -4 2 -15 -5 -23 -9 -13 -9 -14 1 -8 6 4 12 3 12 -3 0
-19 -19 -21 -29 -4 -14 25 -14 7 1 -20 10 -20 9 -21 -5 -9 -13 11 -15 10 -10
-7 3 -13 1 -21 -6 -21 -7 0 -10 4 -7 8 3 5 -1 9 -9 9 -12 0 -12 -4 2 -20 11
-13 12 -17 4 -12 -11 6 -13 4 -8 -8 8 -22 3 -21 -19 0 -16 16 -16 16 -9 -7 11
-38 11 -42 -4 -48 -9 -3 -12 0 -9 10 4 8 2 21 -3 29 -8 12 -10 12 -8 -1 3 -31
-1 -41 -13 -34 -10 6 -10 5 -1 -7 8 -10 9 -19 1 -29 -8 -12 -9 -12 -4 3 3 9 1
17 -4 17 -6 0 -10 -9 -10 -20 0 -11 -5 -20 -11 -20 -5 0 -8 4 -5 8 3 5 -1 9
-9 9 -13 0 -13 -3 0 -17 14 -15 13 -19 -5 -35 -11 -10 -17 -21 -15 -26 3 -4 2
-10 -3 -13 -4 -2 -8 6 -8 19 0 13 4 21 10 18 5 -3 6 -1 2 5 -4 6 -14 8 -22 5
-9 -3 -12 -9 -7 -12 15 -11 13 -31 -2 -31 -8 0 -15 -5 -15 -11 0 -5 4 -7 10
-4 5 3 19 1 31 -6 12 -6 19 -7 15 -1 -3 5 1 12 9 16 8 3 17 0 21 -6 4 -6 3 -8
-3 -5 -5 3 -10 0 -10 -8 0 -12 3 -12 14 -3 11 9 17 8 24 -3 5 -8 9 -9 9 -3 0
12 29 12 49 0 10 -7 11 -4 2 11 -9 17 -7 20 14 19 13 -1 27 -5 31 -9 4 -3 -3
-5 -14 -2 -15 3 -19 0 -15 -12 3 -8 9 -11 12 -6 5 7 46 10 54 3 9 -7 38 -7 43
1 3 5 10 9 15 9 6 0 8 -4 5 -8 -3 -5 1 -9 8 -9 7 0 13 6 13 13 0 7 -4 11 -8 8
-4 -2 -11 1 -15 7 -4 7 -3 9 4 5 6 -3 15 1 20 10 6 11 11 13 16 5 4 -6 2 -11
-5 -11 -8 0 -9 -3 0 -13 6 -8 7 -18 3 -23 -4 -5 -3 -5 3 -1 6 5 10 14 10 20 0
7 7 12 15 12 8 1 14 7 12 15 -3 11 0 11 14 -1 12 -10 18 -11 21 -2 3 8 11 7
31 -3 24 -12 27 -12 30 2 3 14 5 13 16 -1 11 -16 14 -16 28 -1 14 14 17 14 22
0 3 -8 11 -12 16 -9 8 5 7 11 -1 21 -10 12 -9 13 5 8 9 -3 16 -10 16 -14 0
-10 27 -7 37 5 4 4 3 5 -3 2 -16 -9 -39 19 -24 28 6 4 9 1 8 -6 -2 -7 3 -13
10 -14 7 0 16 -6 21 -13 7 -11 10 -10 15 3 5 15 9 15 23 4 15 -13 15 -12 5 8
-9 16 -9 24 0 29 6 4 8 3 4 -4 -3 -6 -2 -13 4 -17 5 -3 10 -2 10 4 0 6 7 7 17
4 10 -4 14 -2 9 5 -3 6 -2 13 3 16 5 4 13 1 17 -5 5 -8 3 -9 -6 -4 -9 6 -11 4
-5 -4 5 -9 10 -10 18 -2 15 15 44 14 50 -1 4 -8 6 -7 6 4 1 9 -5 19 -11 21
-10 4 -10 6 0 6 7 1 10 6 6 13 -4 7 -3 8 5 4 6 -4 9 -10 7 -14 -2 -4 3 -13 11
-21 13 -12 14 -11 8 7 -5 17 -3 21 9 16 10 -4 16 -1 16 7 0 7 6 5 14 -7 11
-14 18 -16 26 -8 9 9 9 14 -1 19 -8 5 -10 4 -5 -3 4 -7 2 -12 -3 -12 -13 0
-14 17 -2 25 5 3 17 -2 25 -11 9 -9 16 -11 16 -4 0 6 5 8 12 4 7 -4 8 -3 4 4
-4 7 -2 12 3 12 6 0 11 8 11 18 0 14 2 15 9 2 6 -8 7 -18 5 -22 -3 -4 0 -8 6
-8 7 0 9 8 5 21 -5 15 -4 19 4 15 6 -4 11 -3 11 2 0 5 11 8 25 7 14 -2 23 1
19 6 -3 5 0 9 6 9 6 0 8 4 5 10 -3 6 1 7 10 4 9 -4 15 -3 14 2 -3 20 2 24 21
14 16 -9 20 -8 21 7 1 10 1 22 0 26 -1 5 3 6 9 2 6 -3 8 -10 6 -14 -6 -10 25
-8 42 3 6 4 12 14 12 22 0 9 -5 12 -12 8 -6 -4 -8 -3 -4 4 3 6 15 9 26 7 11
-2 20 0 20 5 0 5 7 6 17 3 11 -4 14 -3 9 5 -4 8 0 12 11 12 15 0 16 2 3 10
-13 9 -13 10 1 10 8 0 21 -6 28 -12 11 -11 12 -9 3 8 -7 12 -7 26 -1 35 5 9 9
10 9 2 0 -7 9 -10 21 -8 29 6 33 11 14 19 -11 4 -14 2 -9 -6 4 -7 3 -8 -5 -4
-20 13 -3 24 31 20 23 -3 29 -1 18 5 -8 6 -17 8 -21 5 -4 -2 -10 -1 -13 4 -2
4 7 9 22 10 14 1 31 7 37 14 7 8 7 9 -2 4 -6 -3 -15 -1 -19 5 -4 7 -3 9 4 5 6
-3 13 -2 17 4 9 15 28 12 19 -3 -4 -6 1 -4 12 5 21 18 31 64 12 52 -6 -4 -8
-3 -5 4 4 5 16 8 27 5 16 -4 19 -2 14 11 -4 11 -1 16 11 16 10 0 13 -5 9 -12
-4 -6 -3 -8 4 -5 5 4 9 18 8 32 -2 13 0 22 4 20 13 -8 19 22 8 33 -7 7 -6 10
5 8 9 -1 20 -6 24 -11 4 -4 3 -6 -2 -2 -7 3 -11 -6 -10 -23 0 -15 4 -26 8 -23
4 3 6 10 4 16 -2 7 2 20 11 30 10 11 11 17 4 17 -7 0 -12 5 -12 11 0 5 5 7 11
3 8 -4 9 1 4 17 -7 23 -6 23 7 5 12 -15 17 -16 23 -6 6 9 4 11 -5 5 -9 -6 -11
-4 -6 4 5 7 14 10 22 7 7 -3 16 -1 19 5 4 5 3 9 -2 8 -22 -4 -32 2 -27 16 4 8
10 15 16 15 5 0 7 -4 4 -8 -3 -5 1 -9 8 -9 8 0 11 9 8 25 -4 21 -2 23 19 17
15 -4 19 -3 11 3 -7 5 -15 22 -18 38 -3 22 -2 25 6 14 9 -14 11 -13 14 9 0 5
5 13 10 18 5 5 6 2 2 -7 -5 -9 -2 -8 7 2 8 10 17 15 20 12 3 -4 4 6 1 21 -3
17 -1 24 6 20 5 -3 10 1 10 10 0 10 -5 13 -12 9 -10 -6 -10 -4 -2 7 6 8 10 22
9 32 -2 9 1 15 6 11 5 -3 7 -9 4 -14 -3 -5 -1 -11 4 -15 6 -3 8 5 5 20 -4 21
-1 25 13 23 15 -3 17 6 18 64 0 36 2 66 5 66 23 -2 40 4 40 13 0 6 -7 9 -14 6
-10 -4 -13 -1 -9 8 3 8 10 12 17 8 6 -4 4 1 -4 12 -8 10 -15 19 -14 19 14 17
22 46 14 51 -5 3 -10 12 -10 18 0 9 2 9 8 0 5 -8 13 -9 22 -3 8 6 10 10 4 10
-17 0 -25 28 -12 36 6 4 8 3 5 -2 -3 -6 4 -16 16 -24 19 -11 20 -11 11 1 -7 8
-12 38 -13 68 0 38 -6 58 -18 68 -15 13 -14 12 8 0 21 -13 26 -13 26 -2 0 8
-4 12 -8 9 -8 -5 -22 13 -25 33 -1 7 5 9 13 6 13 -5 14 -3 5 13 -8 15 -7 24 6
39 17 20 17 20 -4 2 -19 -16 -22 -16 -27 -2 -4 10 -1 15 11 15 13 0 11 4 -7
16 l-24 17 24 13 24 13 -25 1 c-20 0 -22 2 -10 10 10 6 11 10 3 10 -7 0 -13 5
-13 11 0 5 5 7 12 3 7 -4 8 -3 4 4 -4 7 -2 12 5 12 7 0 5 6 -6 13 -12 10 -15
16 -6 21 16 10 -6 49 -25 42 -8 -3 -14 -1 -14 4 0 6 10 10 22 10 24 0 19 10
-8 14 -9 2 -18 10 -20 19 -1 10 2 15 7 11 5 -3 6 -10 3 -16 -4 -7 -2 -8 4 -4
13 8 5 36 -10 36 -6 0 -4 8 3 17 12 14 12 16 0 8 -10 -6 -13 -4 -9 6 3 8 1 23
-4 34 -8 18 -8 18 -4 -2 2 -13 0 -23 -5 -23 -5 0 -9 9 -9 20 0 11 -6 20 -12
21 -7 0 -4 4 7 9 17 7 17 9 3 9 -21 1 -23 12 -5 30 10 11 8 12 -12 6 -15 -5
-21 -3 -17 3 3 6 3 12 -1 15 -5 2 -2 2 5 1 6 -2 12 1 12 6 0 6 -9 10 -20 10
-23 0 -26 10 -7 29 10 11 7 12 -13 6 -19 -5 -21 -4 -10 4 11 8 12 11 2 11 -7
0 -10 5 -7 10 5 8 12 7 23 -2 12 -9 11 -6 -2 10 -15 17 -22 19 -33 11 -11 -10
-12 -8 -7 6 6 14 4 16 -6 10 -9 -5 -11 -4 -6 4 4 6 12 9 17 6 5 -4 9 -2 9 3 0
6 -7 13 -16 16 -10 4 -13 13 -9 26 5 15 2 20 -13 20 -22 0 -56 33 -45 44 4 4
1 12 -7 17 -13 9 -13 10 0 6 8 -2 15 -11 15 -20 0 -8 4 -19 8 -23 4 -4 7 2 7
14 0 14 -12 30 -32 43 -18 12 -25 19 -16 16 12 -4 15 -2 11 8 -3 8 -10 12 -15
9 -6 -4 -6 1 1 13 9 18 7 20 -14 17 -14 -1 -23 2 -19 7 3 5 0 9 -5 9 -6 0 -11
9 -11 21 0 13 -4 18 -12 13 -10 -6 -10 -4 0 8 10 13 10 17 -4 22 -9 3 -20 4
-24 1 -14 -9 -22 15 -10 30 9 10 7 15 -8 19 -21 7 -71 56 -57 56 5 0 -2 8 -15
17 -14 10 -29 17 -33 15 -5 -1 -6 2 -2 8 3 5 1 10 -6 10 -7 0 -9 3 -6 7 4 3
18 -4 32 -17 14 -13 28 -20 32 -17 3 4 1 7 -6 7 -7 0 -9 5 -6 10 4 6 1 9 -7 8
-7 -2 -12 3 -11 9 2 7 -3 12 -10 10 -6 -1 -11 3 -10 10 1 6 -4 14 -12 17 -9 3
-12 0 -8 -10 3 -7 1 -14 -5 -14 -5 0 -9 10 -8 23 1 14 7 21 16 19 8 -2 11 0 7
4 -11 11 -38 14 -31 3 3 -5 0 -9 -5 -9 -6 0 -11 7 -11 15 0 11 -7 14 -25 11
-15 -3 -23 -1 -20 5 4 5 11 7 16 4 5 -4 9 -2 9 4 0 5 -9 13 -20 16 -18 6 -24
17 -21 38 0 4 -3 7 -9 7 -5 0 -10 -6 -10 -12 0 -9 -3 -8 -10 2 -6 9 -5 20 3
30 6 8 7 12 3 8 -11 -9 -39 28 -32 41 4 5 -2 8 -11 6 -10 -1 -23 2 -29 7 -7 5
-17 7 -24 6 -7 -2 -15 4 -17 12 -4 13 -3 13 6 0 9 -13 11 -13 11 3 0 19 -26
23 -33 5 -5 -13 -11 15 -8 38 2 13 -27 27 -39 19 -5 -3 -18 7 -29 22 -15 18
-18 29 -10 33 8 6 8 9 0 14 -6 4 -11 3 -11 -1 0 -5 -7 -18 -16 -29 -8 -10 -13
-13 -9 -6 3 7 8 25 11 40 l4 27 -13 -24 c-12 -20 -15 -21 -20 -7 -4 11 -12 14
-19 10 -7 -4 -4 3 7 16 11 13 15 21 9 17 -6 -3 -21 7 -33 24 -12 16 -26 27
-31 24 -5 -3 -16 5 -24 17 -9 12 -16 17 -16 10 0 -6 -4 -12 -10 -12 -5 0 -10
6 -10 14 0 8 -9 18 -20 21 -11 3 -20 11 -20 16 0 6 5 7 12 3 7 -5 8 -3 4 5 -5
7 -10 10 -13 7 -3 -3 -20 4 -37 15 l-31 21 28 -24 c15 -13 27 -27 27 -31 0 -4
-12 3 -27 17 -15 14 -31 22 -36 19 -5 -3 -4 4 2 16 9 17 9 21 -1 19 -7 -2 -12
3 -10 10 2 9 -2 11 -10 6 -19 -12 -39 -14 -32 -3 3 5 0 9 -5 9 -6 0 -11 5 -11
12 0 6 7 4 18 -5 15 -14 19 -15 19 -2 0 8 -4 12 -8 9 -4 -2 -10 0 -14 6 -4 6
-11 8 -16 5 -8 -6 -13 9 -10 28 1 5 -2 6 -7 3 -5 -3 -18 1 -28 9 -21 16 -58
20 -49 5 3 -5 13 -7 23 -4 14 5 14 4 2 -4 -14 -11 -44 3 -36 17 2 3 0 15 -5
26 -6 16 -8 17 -8 3 -1 -9 -5 -19 -10 -22 -4 -3 -7 5 -7 17 3 31 -4 40 -19 27
-9 -7 -16 -6 -26 7 -13 16 -12 17 2 5 14 -10 18 -10 22 1 5 14 -19 17 -40 4
-8 -5 -11 -1 -8 13 2 11 -1 20 -6 20 -6 0 -8 4 -5 8 2 4 -4 8 -15 8 -10 0 -19
-5 -19 -10 0 -5 -3 -6 -6 -3 -4 4 -1 13 6 22 15 18 0 20 -19 3 -11 -11 -13
-10 -8 4 3 10 0 23 -8 30 -36 32 -47 40 -52 35 -2 -3 7 -13 21 -22 14 -10 25
-25 25 -34 -1 -14 -2 -14 -6 0 -2 9 -15 22 -28 29 -14 7 -25 17 -25 22 0 4 -7
8 -15 8 -8 0 -15 5 -15 11 0 5 -4 8 -9 5 -5 -3 -13 0 -19 7 -11 13 -12 17 -12
42 0 8 -5 15 -11 15 -5 0 -7 -4 -4 -10 3 -5 1 -10 -4 -10 -6 0 -11 4 -11 10 0
5 -6 8 -12 6 -7 -1 -10 -1 -5 1 11 7 8 23 -4 23 -7 0 -18 8 -25 18 -13 16 -14
16 -8 -3 5 -16 4 -17 -5 -5 -15 21 -14 28 7 33 9 3 0 4 -20 2 -21 -2 -37 0
-37 3 3 20 -2 32 -11 27 -6 -3 -10 3 -10 13 0 11 -7 23 -16 26 -8 3 -13 10
-10 15 4 5 -5 8 -19 6 -20 -2 -23 0 -14 12 9 11 9 12 -4 8 -8 -4 -18 -1 -23 6
-5 8 -3 10 7 4 11 -6 11 -5 2 5 -13 14 -37 4 -27 -12 5 -7 2 -8 -6 -3 -10 6
-8 12 8 26 l22 17 -23 1 c-46 1 -55 5 -52 21 5 25 -11 44 -30 36 -15 -5 -16
-4 -6 8 10 12 8 16 -8 21 -12 3 -21 13 -21 22 0 12 -3 13 -14 4 -12 -10 -13
-8 -9 8 3 12 10 18 16 14 6 -3 7 -1 3 5 -4 6 -13 9 -21 6 -8 -4 -12 -11 -8
-17 3 -5 1 -7 -5 -3 -6 3 -8 18 -6 32 4 20 1 25 -9 21 -8 -3 -20 -1 -28 5 -11
8 -11 9 3 5 10 -4 18 1 21 13 3 11 2 19 -2 18 -21 -2 -31 3 -25 15 4 6 -3 3
-17 -8 -18 -15 -20 -16 -10 -2 9 11 10 17 2 17 -6 0 -11 5 -11 11 0 5 6 7 13
3 6 -4 1 5 -12 19 -14 15 -29 27 -35 27 -6 0 -4 -5 4 -10 8 -5 10 -10 4 -10
-6 0 -18 8 -25 17 -10 11 -10 14 -1 9 7 -4 12 -2 12 4 0 6 6 8 13 5 6 -4 2 2
-10 13 -12 11 -19 23 -15 27 4 3 2 6 -3 5 -26 -6 -37 1 -32 20 3 13 0 20 -10
20 -8 0 -11 -4 -8 -10 3 -6 -1 -7 -10 -4 -14 6 -14 8 2 21 16 13 16 14 1 9
-26 -8 -34 15 -12 32 16 13 17 14 2 9 -12 -4 -18 -1 -18 8 0 8 -5 15 -12 15
-7 0 -5 7 5 18 17 19 16 20 -40 24 -7 1 -13 5 -13 10 0 5 10 6 23 3 12 -3 17
-3 11 2 -6 4 -10 15 -9 24 2 9 -3 16 -11 16 -10 0 -11 -4 -3 -14 8 -9 8 -13 0
-13 -10 0 -15 13 -12 33 0 4 -4 7 -9 7 -6 0 -10 5 -10 11 0 5 4 8 9 4 5 -3 13
-1 16 5 4 6 1 9 -7 8 -8 -2 -12 5 -11 20 2 12 -2 22 -8 22 -5 0 -7 5 -3 12 4
7 3 8 -5 4 -9 -6 -9 -11 0 -22 8 -10 8 -14 0 -14 -6 0 -11 3 -12 8 0 4 -2 17
-5 30 -3 15 0 21 7 16 8 -5 8 -1 0 13 -6 11 -8 23 -5 26 8 8 -19 3 -33 -6 -9
-6 -11 -3 -7 7 3 9 10 16 15 16 5 0 9 5 9 11 0 5 -4 7 -10 4 -5 -3 -10 -1 -10
5 0 6 -5 8 -12 4 -7 -4 -8 -3 -4 5 4 6 13 9 19 5 7 -3 4 1 -5 9 -20 16 -23 28
-7 24 6 -1 14 5 16 13 4 12 3 13 -5 1 -8 -11 -12 -10 -21 7 -8 15 -8 23 1 28
7 5 8 3 3 -6 -5 -9 -4 -11 4 -6 12 8 7 19 -27 55 -10 10 -10 16 0 28 15 19 18
52 4 50 -6 -1 -10 4 -9 11 4 15 -9 16 -25 2 -7 -5 -5 -2 3 7 13 15 13 19 -2
37 -10 12 -11 15 -3 9 18 -17 27 -16 27 2 0 8 -4 12 -9 9 -4 -3 -8 2 -8 10 0
8 5 18 10 21 13 8 13 25 -1 25 -5 0 -8 -4 -5 -9 3 -5 0 -14 -7 -19 -10 -9 -13
-6 -13 13 0 13 3 22 7 19 5 -2 13 5 19 16 6 11 7 20 3 19 -20 -3 -30 2 -30 16
0 12 3 12 15 2 13 -10 14 -9 3 11 -7 12 -16 20 -21 17 -5 -3 -12 -1 -15 5 -4
6 -1 9 6 8 16 -4 19 20 6 46 -5 10 -5 16 0 13 4 -2 17 5 28 16 11 11 14 17 8
13 -7 -4 -13 -2 -13 4 0 6 -4 9 -8 6 -4 -2 -8 6 -8 19 0 13 2 22 6 20 3 -1 14
9 24 23 11 14 14 22 8 18 -8 -5 -12 0 -13 13 -1 12 -2 31 -2 44 -1 13 4 22 13
22 8 0 15 7 15 15 1 8 7 14 14 12 7 -1 10 2 6 8 -3 6 -11 8 -16 5 -5 -4 -9 -1
-9 5 0 6 -6 8 -12 5 -7 -4 -4 2 8 12 11 10 19 24 16 31 -2 6 1 12 8 12 6 0 8
5 5 10 -3 6 2 10 12 11 13 1 11 3 -7 9 -22 7 -22 8 -5 10 11 1 24 2 28 1 5 -1
6 3 2 9 -3 6 -10 8 -15 5 -4 -3 -10 2 -13 10 -4 9 -1 12 9 8 7 -3 14 -1 14 5
0 6 -6 13 -12 15 -8 4 -7 6 4 6 9 1 18 -5 21 -11 2 -7 3 8 2 33 -2 43 0 47 20
45 14 -2 21 3 22 16 1 10 -3 18 -8 18 -6 0 -7 5 -4 10 4 6 10 8 15 5 5 -3 12
0 16 6 4 7 3 9 -2 6 -6 -3 -16 4 -23 16 -8 12 -10 19 -6 15 5 -4 14 -3 21 3 8
7 14 6 20 -2 5 -8 3 -9 -6 -4 -9 6 -11 4 -6 -4 9 -14 19 -7 22 14 2 14 -9 20
-29 16 -5 -1 -6 3 -2 8 3 6 13 7 22 4 11 -4 14 -3 9 5 -4 8 -2 10 7 6 21 -8
29 34 9 46 -16 9 -16 9 -1 10 9 0 19 7 23 15 6 17 0 20 -9 5z m-5 -44 c0 -3
-4 -8 -10 -11 -5 -3 -10 -1 -10 4 0 6 5 11 10 11 6 0 10 -2 10 -4z m-303 -158
c-3 -8 -6 -5 -6 6 -1 11 2 17 5 13 3 -3 4 -12 1 -19z m233 6 c0 -2 -7 -4 -15
-4 -8 0 -15 4 -15 10 0 5 7 7 15 4 8 -4 15 -8 15 -10z m-270 -34 c0 -5 -4 -10
-10 -10 -5 0 -10 5 -10 10 0 6 5 10 10 10 6 0 10 -4 10 -10z m-240 -180 c0 -5
-5 -10 -11 -10 -5 0 -7 5 -4 10 3 6 8 10 11 10 2 0 4 -4 4 -10z m407 -54 c0
-8 -6 -12 -15 -9 -11 5 -11 7 0 14 7 5 13 9 14 9 0 0 1 -6 1 -14z m-562 -86
c-3 -5 -12 -10 -18 -10 -7 0 -6 4 3 10 19 12 23 12 15 0z m539 -18 c3 -5 -1
-9 -9 -9 -8 0 -12 4 -9 9 3 4 7 8 9 8 2 0 6 -4 9 -8z m19 -426 c6 -14 -1 -26
-14 -26 -4 0 -7 9 -6 20 1 23 12 26 20 6z m12 -86 c3 -6 -1 -7 -9 -4 -18 7
-21 14 -7 14 6 0 13 -4 16 -10z m55 -168 c0 -5 -7 -9 -15 -9 -8 0 -12 4 -9 9
3 4 9 8 15 8 5 0 9 -4 9 -8z m97 -208 c-3 -3 -12 -4 -19 -1 -8 3 -5 6 6 6 11
1 17 -2 13 -5z m-1305 -86 c-8 -8 -8 -15 -1 -24 8 -9 5 -11 -11 -7 -20 5 -20
7 -4 24 9 11 20 19 23 19 3 0 0 -5 -7 -12z m2 -87 c4 -5 -3 -7 -14 -4 -23 6
-26 13 -6 13 8 0 17 -4 20 -9z m1404 0 c9 -5 4 -8 -16 -7 -17 1 -28 4 -25 9 6
9 25 9 41 -2z m47 -61 c3 -5 1 -10 -4 -10 -6 0 -11 5 -11 10 0 6 2 10 4 10 3
0 8 -4 11 -10z m-1448 -19 c0 -11 -7 -17 -14 -14 -9 4 -9 8 0 19 16 17 16 17
14 -5z m-2 -41 c3 -6 -1 -7 -9 -4 -18 7 -21 14 -7 14 6 0 13 -4 16 -10z m1502
-6 c-3 -3 -12 -4 -19 -1 -8 3 -5 6 6 6 11 1 17 -2 13 -5z m-1487 -69 c0 -2 -6
-5 -13 -8 -8 -3 -14 1 -14 8 0 7 6 11 14 8 7 -3 13 -6 13 -8z m40 -145 c0 -5
-5 -10 -11 -10 -5 0 -7 5 -4 10 3 6 8 10 11 10 2 0 4 -4 4 -10z m1730 -102 c0
-6 -6 -5 -15 2 -8 7 -15 14 -15 16 0 2 7 1 15 -2 8 -4 15 -11 15 -16z m-1682
-48 c7 -11 11 -20 9 -20 -2 0 -12 9 -22 20 -10 11 -14 20 -9 20 5 0 15 -9 22
-20z m85 -155 c-3 -9 -8 -14 -10 -11 -3 3 -2 9 2 15 9 16 15 13 8 -4z m120
-206 c7 -1 15 -1 18 -1 3 1 6 -5 6 -13 0 -10 -7 -9 -29 6 -17 12 -25 25 -21
32 5 8 9 6 11 -5 2 -10 9 -19 15 -19z m2047 -29 c0 -6 -5 -10 -11 -10 -5 0 -7
5 -4 10 3 6 -1 10 -9 10 -9 0 -16 5 -16 10 0 7 6 7 20 0 11 -6 20 -15 20 -20z
m77 -66 c-3 -3 -12 -4 -19 -1 -8 3 -5 6 6 6 11 1 17 -2 13 -5z m-1982 -73 c-6
-5 -25 10 -25 20 0 5 6 4 14 -3 8 -7 12 -15 11 -17z m2168 -55 c3 3 13 -6 23
-20 9 -15 14 -29 11 -32 -3 -3 -8 4 -12 15 -3 12 -13 22 -21 22 -8 1 -19 2
-26 3 -6 0 -12 9 -14 19 -2 17 -1 17 15 3 10 -9 20 -13 24 -10z m-2096 -18
c-3 -8 -6 -5 -6 6 -1 11 2 17 5 13 3 -3 4 -12 1 -19z m2273 -148 c0 -5 -5 -10
-11 -10 -5 0 -7 5 -4 10 3 6 8 10 11 10 2 0 4 -4 4 -10z m88 -95 c-3 -3 -9 2
-12 12 -6 14 -5 15 5 6 7 -7 10 -15 7 -18z m42 -28 c0 -5 -7 -2 -15 7 -8 8
-15 20 -15 27 0 14 29 -20 30 -34z m-1988 -138 c10 -9 18 -20 18 -24 0 -5 -11
2 -25 15 -14 13 -25 31 -24 39 0 14 1 14 6 1 4 -8 14 -22 25 -31z m213 -179
c3 -5 1 -10 -4 -10 -6 0 -11 5 -11 10 0 6 2 10 4 10 3 0 8 -4 11 -10z m246
-207 c13 -17 13 -17 -6 -3 -11 8 -22 16 -24 17 -2 2 0 3 6 3 6 0 17 -8 24 -17z
m1983 -68 c-4 -8 -11 -12 -16 -9 -6 4 -5 10 3 15 19 12 19 11 13 -6z m-1751
-82 c-7 -2 -13 -9 -13 -14 0 -6 4 -8 8 -5 5 3 9 -2 9 -10 0 -13 -2 -13 -15 0
-15 15 -9 37 11 35 9 0 9 -2 0 -6z m141 -122 c3 -5 -2 -15 -12 -22 -15 -12
-16 -12 -5 2 7 9 10 19 6 22 -3 4 -4 7 0 7 3 0 8 -4 11 -9z m1789 -205 c3 -8
-4 -22 -15 -33 -14 -11 -18 -13 -12 -3 9 15 10 20 13 40 2 14 8 12 14 -4z
m-1523 -20 c0 -3 -4 -8 -10 -11 -5 -3 -10 -1 -10 4 0 6 5 11 10 11 6 0 10 -2
10 -4z m1554 -347 c-3 -5 -10 -7 -15 -3 -5 3 -7 10 -3 15 3 5 10 7 15 3 5 -3
7 -10 3 -15z m-1334 5 c0 -8 -19 -13 -24 -6 -3 5 1 9 9 9 8 0 15 -2 15 -3z
m10 -59 c11 -13 10 -14 -4 -9 -9 3 -16 10 -16 15 0 13 6 11 20 -6z m17 -60 c0
-16 -23 -9 -30 10 -4 8 1 11 12 8 10 -2 18 -10 18 -18z m18 -75 c3 -6 -1 -7
-9 -4 -18 7 -21 14 -7 14 6 0 13 -4 16 -10z m1220 -80 c3 -5 1 -10 -4 -10 -6
0 -11 5 -11 10 0 6 2 10 4 10 3 0 8 -4 11 -10z m-4 -47 c12 -16 12 -17 -2 -6
-9 7 -20 9 -24 5 -5 -4 -5 -1 -1 6 9 16 11 15 27 -5z m-1238 -96 c3 -8 -1 -14
-8 -14 -7 0 -11 6 -8 14 3 7 6 13 8 13 2 0 5 -6 8 -13z m1181 -28 c-3 -5 -10
-7 -15 -3 -5 3 -7 10 -3 15 3 5 10 7 15 3 5 -3 7 -10 3 -15z m-1284 -284 c0
-2 -10 -10 -22 -16 -21 -11 -22 -11 -9 4 13 16 31 23 31 12z m1025 -74 c3 -5
2 -12 -3 -15 -5 -3 -9 1 -9 9 0 17 3 19 12 6z m-261 -222 c-6 -11 -24 -2 -24
11 0 5 7 7 15 4 8 -4 12 -10 9 -15z m-224 -93 c0 -2 -6 -9 -14 -15 -11 -9 -16
-9 -22 0 -4 8 -3 9 4 5 7 -4 12 -2 12 3 0 6 5 11 10 11 6 0 10 -2 10 -4z
m-302 -101 c-3 -3 -9 2 -12 12 -6 14 -5 15 5 6 7 -7 10 -15 7 -18z m-123 -4
c3 -5 2 -12 -3 -15 -5 -3 -9 1 -9 9 0 17 3 19 12 6z m-416 -8 c-4 -22 4 -24
29 -7 19 13 24 13 15 2 -7 -8 -11 -17 -8 -20 8 -8 -29 -3 -43 6 -7 4 -10 12
-7 17 7 11 15 12 14 2z m163 -28 c7 -1 17 4 21 10 5 6 7 5 5 -4 -5 -17 -35
-24 -44 -10 -3 5 -10 7 -15 4 -5 -3 -6 1 -2 10 5 13 7 14 14 3 5 -7 14 -13 21
-13z"/>
<path d="M4090 6790 c0 -5 5 -10 12 -10 6 0 3 -9 -7 -20 -10 -11 -14 -20 -9
-21 5 0 0 -4 -10 -8 -19 -7 -19 -8 1 -13 17 -4 21 -2 18 12 -2 11 3 24 10 30
8 6 11 18 8 26 -6 16 -23 19 -23 4z"/>
<path d="M3470 6751 c0 -7 -5 -9 -12 -5 -7 5 -8 3 -3 -6 6 -10 3 -12 -14 -7
-17 4 -20 3 -12 -7 6 -7 8 -17 4 -22 -4 -5 6 3 22 18 16 15 26 31 22 34 -4 4
-7 2 -7 -5z"/>
<path d="M3784 6552 c0 -10 6 -19 13 -19 8 0 9 6 2 19 -5 10 -11 18 -12 18 -2
0 -3 -8 -3 -18z"/>
<path d="M3771 6446 c-7 -8 -8 -17 -3 -20 6 -3 13 1 16 10 9 23 2 28 -13 10z"/>
<path d="M3060 6421 c0 -10 19 -25 25 -20 1 2 -3 10 -11 17 -8 7 -14 8 -14 3z"/>
<path d="M3769 6378 c-1 -2 -2 -17 -3 -34 -2 -19 3 -31 11 -31 9 0 10 4 2 14
-8 9 -8 13 0 13 6 0 11 5 11 11 0 5 -5 7 -12 3 -8 -5 -9 -2 -5 9 5 13 1 25 -4
15z"/>
<path d="M3978 6328 c5 -5 16 -8 23 -6 8 3 3 7 -10 11 -17 4 -21 3 -13 -5z"/>
<path d="M3983 6236 c1 -11 9 -21 17 -23 10 -3 11 -2 4 4 -6 4 -14 15 -17 23
-5 11 -6 9 -4 -4z"/>
<path d="M2883 6185 c0 -8 4 -12 9 -9 5 3 6 10 3 15 -9 13 -12 11 -12 -6z"/>
<path d="M4015 6039 c-4 -6 -5 -12 -2 -15 2 -3 7 2 10 11 7 17 1 20 -8 4z"/>
<path d="M2776 6018 c3 -5 10 -6 15 -3 13 9 11 12 -6 12 -8 0 -12 -4 -9 -9z"/>
<path d="M5510 5990 c0 -5 5 -10 10 -10 6 0 10 5 10 10 0 6 -4 10 -10 10 -5 0
-10 -4 -10 -10z"/>
<path d="M2733 5933 c-2 -32 -1 -34 12 -17 7 11 9 21 4 22 -5 2 -7 8 -4 12 3
5 2 11 -2 13 -5 3 -9 -11 -10 -30z"/>
<path d="M4133 5733 c4 -3 2 -12 -5 -20 -6 -8 -7 -13 -2 -12 21 4 35 -2 29
-11 -3 -5 1 -10 10 -10 14 0 13 4 -5 30 -12 17 -24 30 -27 30 -4 0 -3 -3 0 -7z"/>
<path d="M5109 5711 c-20 -16 -22 -22 -11 -33 7 -7 13 -8 12 -3 -4 19 0 36 8
32 4 -3 13 1 20 9 19 21 -2 17 -29 -5z"/>
<path d="M4180 5630 c0 -5 5 -10 11 -10 5 0 7 5 4 10 -3 6 -8 10 -11 10 -2 0
-4 -4 -4 -10z"/>
<path d="M4975 5580 c-3 -5 -1 -10 4 -10 6 0 11 5 11 10 0 6 -2 10 -4 10 -3 0
-8 -4 -11 -10z"/>
<path d="M4970 5552 c0 -5 7 -9 15 -9 8 0 12 4 9 9 -3 4 -9 8 -15 8 -5 0 -9
-4 -9 -8z"/>
<path d="M4350 5410 c0 -5 5 -10 11 -10 5 0 7 5 4 10 -3 6 -8 10 -11 10 -2 0
-4 -4 -4 -10z"/>
<path d="M4873 5337 c0 -8 6 -14 13 -14 7 0 10 6 7 14 -3 7 -8 13 -12 13 -4 0
-8 -6 -8 -13z"/>
<path d="M2615 5270 c-8 -13 5 -13 25 0 13 8 13 10 -2 10 -9 0 -20 -4 -23 -10z"/>
<path d="M4867 5246 c-4 -10 -1 -13 9 -9 7 3 14 9 14 14 0 14 -17 10 -23 -5z"/>
<path d="M4539 5217 c5 -5 7 -17 4 -26 -4 -9 -3 -13 1 -10 14 13 14 46 0 46
-9 0 -11 -4 -5 -10z"/>
<path d="M2615 5190 c3 -5 8 -10 11 -10 2 0 4 5 4 10 0 6 -5 10 -11 10 -5 0
-7 -4 -4 -10z"/>
<path d="M4300 5123 c0 -1 8 -7 18 -12 13 -7 19 -6 19 2 0 7 -9 13 -19 13 -10
0 -18 -1 -18 -3z"/>
<path d="M2657 5109 c7 -7 15 -10 18 -7 3 3 -2 9 -12 12 -14 6 -15 5 -6 -5z"/>
<path d="M4690 5090 c0 -5 5 -10 11 -10 5 0 7 -5 3 -12 -4 -7 -3 -8 5 -4 9 6
9 11 0 22 -14 17 -19 18 -19 4z"/>
<path d="M4870 5019 c0 -5 5 -7 10 -4 6 3 10 8 10 11 0 2 -4 4 -10 4 -5 0 -10
-5 -10 -11z"/>
<path d="M4794 5008 c-4 -7 -3 -10 1 -5 5 4 17 0 27 -10 10 -9 20 -14 22 -12
2 2 -6 12 -19 22 -18 13 -25 14 -31 5z"/>
<path d="M4485 4970 c-3 -5 -2 -10 4 -10 5 0 13 5 16 10 3 6 2 10 -4 10 -5 0
-13 -4 -16 -10z"/>
<path d="M2730 4886 c0 -2 8 -10 18 -17 15 -13 16 -12 3 4 -13 16 -21 21 -21
13z"/>
<path d="M4630 4829 c0 -5 3 -8 8 -7 4 0 15 -2 25 -7 10 -4 21 -5 24 -1 4 3
-1 6 -11 6 -9 0 -15 4 -12 8 2 4 -4 9 -15 9 -10 1 -19 -2 -19 -8z"/>
<path d="M2780 4800 c-12 -7 -10 -9 7 -7 12 0 19 5 17 9 -6 10 -6 10 -24 -2z"/>
<path d="M2844 4714 c9 -8 14 -19 11 -24 -6 -9 25 -23 33 -15 3 3 1 5 -5 5 -5
0 -15 11 -21 25 -6 14 -16 25 -22 25 -7 0 -4 -7 4 -16z"/>
<path d="M3020 4460 c-9 -6 -10 -10 -3 -10 6 0 15 5 18 10 8 12 4 12 -15 0z"/>
<path d="M3100 4380 c-9 -6 -10 -10 -3 -10 6 0 15 5 18 10 8 12 4 12 -15 0z"/>
<path d="M5335 4290 c3 -5 8 -10 11 -10 2 0 4 5 4 10 0 6 -5 10 -11 10 -5 0
-7 -4 -4 -10z"/>
<path d="M5409 4233 c14 -28 17 -28 25 -6 4 10 4 14 0 10 -4 -4 -14 -1 -22 6
-13 10 -14 9 -3 -10z"/>
<path d="M3274 4189 c-4 -7 -3 -9 4 -5 5 3 12 0 15 -6 2 -7 7 -10 11 -7 4 3 0
12 -8 18 -11 9 -16 9 -22 0z"/>
<path d="M5478 4173 c7 -3 16 -2 19 1 4 3 -2 6 -13 5 -11 0 -14 -3 -6 -6z"/>
<path d="M5806 3831 c-3 -5 1 -14 9 -21 10 -9 15 -9 15 -1 0 6 -5 11 -11 11
-5 0 -7 5 -4 10 3 6 4 10 1 10 -3 0 -7 -4 -10 -9z"/>
<path d="M4070 3499 c0 -5 5 -7 10 -4 6 3 10 1 10 -4 0 -6 5 -11 11 -11 8 0 8
5 -1 15 -14 17 -30 20 -30 4z"/>
<path d="M4216 3401 c-4 -7 -5 -15 -2 -18 9 -9 19 4 14 18 -4 11 -6 11 -12 0z"/>
<path d="M6110 3350 c-9 -6 -10 -10 -3 -10 6 0 15 5 18 10 8 12 4 12 -15 0z"/>
<path d="M3659 3301 c-6 -17 -39 -24 -39 -8 0 6 -6 2 -14 -8 -16 -22 -48 -29
-57 -13 -6 9 -11 8 -22 -1 -12 -9 -16 -9 -20 1 -4 10 -6 10 -6 1 -1 -7 -7 -13
-15 -13 -8 0 -17 6 -19 13 -3 7 -6 5 -6 -5 -1 -11 -6 -15 -16 -12 -8 4 -12 11
-8 18 4 7 1 7 -9 -1 -8 -7 -19 -9 -23 -5 -5 4 -5 1 -1 -6 4 -7 13 -9 19 -6 7
4 9 4 5 -1 -4 -4 -2 -15 4 -24 12 -15 11 -15 -7 0 -11 9 -27 20 -35 24 -13 8
-13 7 -1 -8 12 -15 12 -17 -4 -11 -14 6 -16 4 -10 -6 5 -9 4 -11 -4 -6 -6 4
-9 11 -6 16 3 5 0 12 -7 16 -7 4 -10 4 -6 0 3 -4 -3 -17 -14 -28 -19 -19 -20
-19 -39 -2 -20 18 -20 17 -10 -8 8 -22 8 -26 -4 -21 -8 3 -13 8 -10 12 2 4 -3
8 -11 8 -8 0 -13 -6 -10 -13 6 -15 -10 -27 -38 -29 -10 -1 -26 -10 -34 -21
-13 -16 -14 -16 -9 -1 4 11 1 17 -9 17 -8 0 -12 -4 -9 -10 3 -6 -1 -7 -9 -4
-9 3 -16 1 -16 -6 0 -7 -8 -9 -22 -5 -23 7 -23 7 -3 -8 l20 -16 -20 3 c-11 2
-29 -1 -40 -7 -11 -6 -24 -12 -30 -12 -5 0 -9 -9 -7 -19 2 -10 -1 -15 -7 -12
-5 4 -13 -4 -17 -16 l-6 -21 -14 24 -14 24 4 -27 c3 -15 0 -31 -6 -34 -6 -4
-8 -3 -5 2 3 6 -3 16 -15 23 -16 10 -19 10 -12 -1 5 -7 9 -19 10 -26 2 -10 -1
-11 -12 -1 -8 6 -17 9 -21 5 -3 -3 -1 -6 6 -6 7 0 9 -4 6 -10 -3 -5 -1 -10 6
-10 7 0 9 -3 6 -6 -4 -4 -13 -1 -21 5 -13 11 -15 9 -11 -8 2 -14 -1 -18 -10
-15 -8 3 -11 13 -9 22 4 13 3 13 -6 -2 -10 -15 -9 -20 1 -27 11 -7 9 -9 -6 -9
-12 0 -27 6 -35 13 -7 6 -3 -2 9 -20 15 -23 18 -34 10 -39 -7 -4 -9 -3 -5 4 3
6 1 14 -6 19 -19 11 -39 13 -32 2 3 -5 11 -6 17 -2 7 3 4 -3 -6 -14 -9 -11
-14 -23 -10 -27 4 -4 0 -4 -9 -1 -9 4 -19 14 -21 23 -3 10 -4 1 -3 -18 1 -24
-3 -34 -12 -32 -7 1 -15 -5 -18 -13 -3 -8 -9 -13 -13 -11 -3 2 -15 -6 -26 -17
-11 -11 -14 -17 -7 -13 6 4 12 5 12 2 0 -3 -10 -10 -21 -17 -15 -8 -19 -8 -15
0 11 18 2 13 -17 -10 -18 -20 -18 -21 3 -14 l22 7 -21 -21 c-23 -23 -36 -28
-25 -9 5 7 3 8 -5 4 -7 -5 -10 -14 -7 -22 4 -10 0 -14 -11 -12 -9 2 -18 -4
-20 -12 -4 -12 -3 -12 5 -1 6 8 12 9 16 3 11 -18 -23 -22 -34 -4 -11 16 -11
16 -6 0 3 -10 9 -26 12 -35 5 -15 4 -14 -10 2 -15 19 -16 19 -9 1 4 -13 3 -17
-5 -12 -6 3 -13 2 -17 -4 -4 -6 -12 -7 -18 -4 -7 4 -9 3 -4 -1 4 -5 -1 -17
-10 -28 -10 -11 -13 -17 -7 -14 7 4 15 -1 18 -10 4 -10 4 -14 0 -10 -4 4 -13
-2 -21 -13 -8 -11 -21 -20 -30 -20 -14 0 -14 -2 3 -14 21 -16 0 -17 -25 -2
-10 6 -12 5 -7 -2 8 -14 -12 -55 -23 -48 -4 3 -6 -6 -3 -19 2 -14 9 -22 15
-18 6 4 7 1 3 -6 -5 -7 -10 -10 -13 -7 -3 3 -13 -9 -22 -27 -9 -17 -23 -31
-31 -29 -11 3 -11 0 1 -14 9 -12 9 -15 2 -10 -8 4 -13 2 -13 -4 0 -6 -4 -9 -9
-6 -5 3 -8 -8 -7 -24 2 -30 -8 -41 -17 -17 -3 7 -6 4 -6 -6 -1 -10 -5 -16 -9
-13 -4 2 -9 -4 -9 -15 -1 -10 2 -19 8 -19 5 0 9 -5 9 -11 0 -6 -6 -9 -14 -6
-20 8 -28 -4 -13 -21 9 -13 9 -14 0 -8 -7 4 -13 2 -13 -3 0 -6 4 -11 8 -11 4
0 8 -8 8 -19 0 -11 -5 -17 -13 -14 -7 3 -10 10 -6 17 3 6 0 5 -8 -2 -9 -8 -10
-15 -4 -20 15 -11 14 -39 -2 -39 -8 0 -12 6 -9 13 3 8 2 15 -2 18 -4 3 -8 -4
-9 -14 -1 -11 3 -22 8 -25 5 -4 7 -11 3 -16 -3 -5 -10 -6 -16 -3 -6 4 -8 2 -4
-4 3 -6 2 -13 -4 -17 -6 -4 -8 -10 -5 -15 3 -5 -2 -13 -11 -18 -15 -8 -15 -10
0 -15 10 -4 14 -3 11 2 -3 5 -1 12 4 15 5 4 8 -2 7 -11 -2 -10 -9 -18 -17 -18
-8 0 -15 -10 -15 -22 -3 -49 -4 -54 -13 -48 -10 6 -7 -27 4 -45 9 -14 -8 -12
-25 3 -8 6 -7 3 2 -8 19 -23 16 -74 -5 -87 -9 -6 -8 -8 2 -8 11 0 10 -5 -4
-20 -18 -20 -18 -21 -1 -14 18 7 18 6 0 -22 -15 -24 -16 -27 -2 -16 12 10 18
10 24 1 4 -7 3 -9 -3 -6 -6 4 -13 0 -17 -8 -3 -8 -11 -13 -18 -11 -7 1 -10 1
-5 -1 4 -3 5 -9 1 -14 -3 -5 0 -9 5 -9 6 0 11 5 11 10 0 6 4 10 8 10 4 0 8
-11 8 -25 0 -17 -3 -22 -10 -15 -14 14 -29 13 -20 -2 5 -8 1 -9 -12 -5 -17 6
-17 6 -3 -5 9 -8 15 -23 12 -38 -2 -17 0 -21 6 -12 7 11 9 11 14 -2 4 -9 3
-15 -1 -15 -23 4 -42 -2 -37 -11 4 -6 10 -8 14 -5 5 2 16 -2 26 -9 14 -10 15
-15 5 -21 -8 -5 -11 -4 -7 2 4 6 0 13 -8 17 -8 3 -17 1 -20 -4 -3 -4 0 -10 6
-12 6 -2 12 -18 14 -36 1 -18 0 -30 -4 -27 -3 4 -6 16 -6 28 0 11 -7 22 -15
24 -9 3 -11 1 -5 -4 14 -11 17 -64 3 -80 -10 -13 -4 -18 17 -13 6 1 7 -2 3 -6
-4 -4 -3 -13 3 -21 6 -7 8 -13 3 -13 -5 0 -2 -5 6 -10 12 -8 11 -10 -8 -10
-20 0 -21 -3 -12 -20 7 -12 16 -18 23 -13 7 4 7 0 -2 -10 -7 -9 -11 -23 -8
-32 4 -8 1 -17 -5 -21 -7 -4 -8 -3 -4 4 5 8 2 10 -8 6 -23 -9 -20 -24 4 -19
19 4 24 -5 21 -34 -2 -8 2 -10 10 -5 8 4 10 3 5 -5 -6 -8 -12 -9 -20 -2 -9 8
-13 7 -13 -4 0 -7 5 -13 10 -12 5 1 12 -4 15 -12 3 -8 0 -11 -7 -7 -7 5 -9 1
-5 -8 3 -9 11 -13 17 -9 6 4 0 -9 -13 -28 l-24 -34 24 20 c13 11 20 14 16 8
-4 -8 -2 -13 5 -13 7 0 4 -7 -7 -15 -13 -10 -14 -14 -5 -15 11 0 11 -3 0 -17
-8 -9 -9 -14 -4 -11 6 3 16 -1 24 -9 12 -13 11 -15 -10 -9 -13 3 -18 3 -11 0
6 -3 9 -11 5 -17 -4 -7 0 -8 13 -3 10 4 15 4 11 0 -4 -4 0 -15 9 -25 10 -11
12 -19 4 -24 -5 -3 -7 -11 -4 -17 4 -7 2 -8 -5 -4 -6 4 -8 12 -5 18 4 7 2 8
-5 4 -9 -6 -9 -11 0 -23 10 -12 10 -16 -2 -24 -8 -5 -9 -9 -4 -9 6 0 17 6 23
12 10 10 12 8 9 -11 -2 -12 -9 -26 -16 -31 -9 -5 -5 -11 15 -18 19 -7 23 -11
11 -11 -10 -1 -15 -6 -12 -11 4 -6 11 -7 17 -4 7 4 8 2 4 -5 -4 -6 -12 -9 -17
-6 -5 4 -9 1 -9 -4 0 -6 9 -11 19 -11 11 0 23 -5 27 -12 5 -8 2 -9 -9 -5 -9 3
-19 1 -23 -5 -4 -6 -3 -8 3 -5 6 4 14 0 17 -9 3 -8 10 -12 16 -9 6 3 7 -1 4
-9 -3 -9 -11 -16 -18 -16 -6 0 -3 -5 6 -11 9 -5 15 -16 12 -24 -4 -9 1 -13 14
-12 12 0 18 5 16 9 -3 5 -9 6 -13 4 -3 -3 -7 4 -7 14 0 14 3 16 13 8 9 -7 13
-7 13 1 0 6 3 10 8 10 21 -4 23 3 7 27 -16 24 -16 25 3 15 14 -7 19 -7 19 4 0
8 -3 12 -7 10 -17 -11 -4 31 15 50 12 11 21 28 19 37 -1 10 3 21 8 25 7 3 8 1
4 -5 -4 -7 -1 -12 9 -12 9 0 14 4 11 9 -3 5 1 11 9 15 12 4 13 11 4 33 -8 23
-8 26 2 16 18 -18 24 -16 37 12 15 32 15 38 0 29 -7 -4 -8 -3 -4 4 4 7 15 12
24 12 15 0 15 2 2 10 -11 7 -11 10 -2 10 7 0 10 4 7 10 -3 6 1 7 9 4 11 -4 16
0 16 11 0 10 5 13 12 9 7 -4 8 -3 4 4 -4 7 -3 12 2 12 5 0 12 10 15 21 4 15
11 20 22 15 9 -3 13 -2 10 3 -3 5 -1 12 5 16 6 4 8 11 5 16 -4 5 0 9 8 9 8 0
18 7 21 16 3 8 10 13 15 10 4 -3 7 6 5 20 -1 14 0 23 3 20 3 -3 14 5 24 17 16
19 20 20 29 7 7 -11 10 -11 10 -2 0 7 4 11 9 7 5 -3 13 0 17 6 4 7 3 9 -2 6
-6 -3 -16 -2 -24 4 -12 7 -10 9 8 9 13 0 21 4 18 9 -7 11 17 32 40 35 9 1 23
16 30 32 8 16 12 20 9 8 -4 -14 0 -21 10 -21 9 0 14 6 11 13 -3 8 -1 16 5 19
5 4 7 10 4 15 -3 5 -1 11 4 15 6 3 8 -6 5 -22 -2 -16 -1 -23 3 -17 5 6 16 10
25 9 11 -2 15 2 11 12 -5 12 -7 12 -14 1 -6 -9 -9 -9 -9 -1 0 14 12 23 40 28
11 2 20 -2 20 -8 0 -8 3 -7 9 2 5 8 14 10 21 6 9 -5 11 -4 6 3 -4 7 -2 12 3
12 6 0 11 6 11 14 0 8 5 18 12 22 6 4 8 3 5 -3 -4 -6 0 -13 8 -16 10 -4 12 -1
8 10 -4 11 -2 14 5 9 7 -4 12 -2 12 3 0 6 4 11 10 11 5 0 7 -8 3 -17 -5 -16
-4 -15 9 1 9 12 20 16 28 11 9 -6 11 -4 5 5 -6 10 -3 12 13 8 15 -4 19 -2 15
8 -4 11 -10 11 -26 3 -17 -9 -19 -9 -11 0 15 16 52 22 60 9 5 -7 2 -8 -7 -3
-12 8 -12 6 0 -8 15 -18 26 -23 16 -7 -3 6 0 11 7 12 7 0 18 2 23 2 6 1 16 5
23 9 6 5 17 5 23 1 8 -4 8 0 0 15 -10 17 -9 20 4 15 8 -4 15 -11 15 -18 0 -6
4 -5 9 4 6 8 7 19 3 25 -3 5 1 4 9 -2 12 -10 18 -10 27 -1 9 9 15 9 25 -1 10
-11 9 -13 -5 -8 -22 8 -34 -11 -19 -26 9 -9 11 -8 6 4 -5 13 0 15 25 14 17 -1
33 2 36 7 3 4 10 8 15 8 6 0 7 -4 4 -10 -4 -6 1 -7 11 -3 11 4 13 8 6 11 -7 2
-12 8 -12 14 0 6 6 5 15 -2 9 -7 14 -19 11 -27 -4 -8 -1 -11 5 -8 6 4 8 13 5
20 -3 8 1 19 9 25 12 10 13 8 10 -8 -3 -16 1 -20 21 -17 13 1 32 8 41 16 15
11 14 9 -1 -9 -19 -22 -19 -22 -1 -16 14 6 16 4 10 -7 -5 -8 -5 -11 1 -6 5 5
10 13 10 18 1 5 2 13 3 18 0 6 10 9 20 8 11 0 17 -5 15 -9 -3 -4 -1 -15 4 -24
8 -14 10 -14 22 1 11 13 10 15 -6 9 -16 -5 -16 -4 -4 5 23 17 33 13 27 -10 -5
-20 -5 -20 13 -4 14 12 20 13 26 4 4 -8 3 -10 -4 -5 -7 4 -12 3 -12 -3 0 -5 9
-9 19 -8 11 0 17 5 15 9 -3 4 0 8 5 8 6 0 11 -8 12 -17 0 -15 2 -15 9 2 5 11
9 14 9 7 1 -7 6 -10 11 -7 6 4 7 11 4 17 -4 7 -2 8 5 4 6 -4 9 -11 6 -16 -3
-4 2 -11 11 -14 12 -5 14 -1 9 17 -7 22 -7 22 8 2 8 -11 13 -24 10 -30 -2 -5
5 1 16 14 12 13 21 18 21 11 0 -7 7 -10 17 -6 10 4 14 4 10 0 -4 -4 1 -13 10
-19 14 -10 21 -10 39 2 20 13 24 12 34 -4 10 -16 10 -16 5 3 -5 18 -2 21 20
16 15 -2 25 0 25 8 0 7 5 6 15 -4 9 -8 23 -12 32 -9 12 5 14 3 8 -8 -5 -8 -1
-7 12 4 11 9 24 14 28 10 5 -5 3 0 -4 9 -12 16 -10 16 21 8 40 -12 38 -12 38
1 0 5 -4 8 -8 5 -5 -3 -9 2 -9 10 0 10 4 11 10 5 7 -7 21 -4 41 7 37 19 47 21
62 10 7 -5 19 1 30 14 10 13 12 17 4 11 -11 -8 -20 -9 -30 -1 -12 8 -12 9 2 4
10 -3 20 -1 24 5 4 7 10 6 19 -1 9 -7 16 -6 26 7 12 16 12 17 -2 6 -13 -10
-16 -10 -16 1 0 15 14 16 36 2 10 -6 12 -5 7 2 -4 7 -3 12 3 12 5 0 13 9 16
21 4 11 9 18 12 15 4 -3 12 2 20 12 8 9 12 12 9 6 -3 -7 1 -14 9 -17 9 -4 12
-1 8 9 -3 8 0 20 6 28 6 7 9 15 6 18 -3 2 2 5 10 5 10 0 12 -4 5 -12 -5 -6 -5
-16 2 -25 8 -12 9 -12 4 3 -3 11 0 20 9 23 12 5 12 10 3 27 -11 21 -10 21 7 7
17 -14 18 -13 12 4 -6 16 -5 17 8 6 13 -11 14 -10 8 6 -6 17 -5 18 12 4 17
-14 18 -14 7 7 -15 27 -15 33 -1 33 5 0 8 -4 4 -9 -3 -6 4 -9 14 -8 18 1 19 3
5 18 -9 11 -11 19 -5 23 5 4 14 -1 19 -10 8 -15 10 -15 15 0 4 10 3 15 -3 11
-6 -3 -10 1 -10 9 0 10 6 13 16 9 14 -5 16 -1 12 20 -5 24 -3 25 16 15 19 -10
20 -10 7 5 -10 13 -10 17 -1 17 10 0 10 3 1 14 -10 12 -8 13 8 9 13 -3 21 -1
21 6 0 7 -5 9 -12 5 -7 -4 -8 -3 -4 5 6 9 11 9 21 1 12 -10 12 -6 5 22 -13 42
-13 42 6 24 8 -9 21 -16 27 -15 9 0 8 2 0 6 -15 6 -17 39 -3 48 6 3 7 -1 4
-12 -5 -17 -5 -17 6 0 6 10 16 14 23 10 7 -4 6 0 -2 10 -15 19 -26 23 -15 5 4
-7 3 -8 -4 -4 -9 5 -7 14 4 32 17 25 31 34 18 12 -5 -10 -3 -10 7 0 12 11 12
14 -1 22 -14 9 -7 14 15 11 6 -1 1 6 -9 14 -11 8 -14 15 -7 15 7 0 9 5 5 13
-4 6 -4 9 0 5 9 -8 46 22 46 37 0 5 -5 3 -10 -5 -7 -12 -9 -10 -7 7 0 12 5 19
11 16 5 -4 7 1 3 10 -8 20 3 22 23 5 12 -11 12 -10 2 3 -9 12 -9 19 1 29 10
12 9 12 -4 2 -12 -9 -16 -9 -16 3 0 8 6 15 13 15 7 0 16 5 20 12 4 7 3 8 -4 4
-7 -4 -12 -1 -12 9 0 10 -5 13 -12 9 -7 -4 -8 -3 -4 5 5 8 12 9 20 2 8 -7 12
-5 12 9 0 10 -4 16 -8 14 -10 -6 -11 10 -1 20 12 12 12 36 0 37 -7 0 -3 4 8 9
l20 9 -20 0 c-17 1 -17 3 -5 11 12 8 12 10 -5 11 l-20 0 20 9 c11 5 14 9 7 9
-8 1 -10 6 -5 14 11 17 13 38 3 32 -4 -3 -11 2 -14 11 -3 8 -2 13 2 10 5 -3 8
12 8 34 0 31 -2 35 -12 23 -9 -13 -13 -13 -19 -3 -5 8 -1 18 11 28 18 13 18
14 -4 7 -22 -6 -23 -5 -12 16 10 18 10 21 -2 17 -9 -4 -14 2 -16 18 -1 13 4
24 11 24 8 0 8 3 -2 9 -8 5 -20 7 -26 4 -8 -2 -13 6 -14 21 -3 49 -4 55 -13
50 -5 -3 -6 -10 -3 -15 3 -5 -1 -6 -9 -3 -9 3 -14 10 -11 14 3 5 -3 13 -12 19
-10 6 -13 11 -8 11 6 0 16 -5 23 -12 9 -9 12 -9 12 0 0 7 -5 12 -11 12 -5 0
-7 4 -4 10 4 6 -1 7 -11 3 -14 -5 -16 -3 -11 12 6 15 5 16 -8 5 -9 -7 -15 -9
-14 -4 4 21 -2 35 -11 29 -5 -3 -10 1 -10 9 0 9 -5 16 -11 16 -5 0 -7 5 -4 10
3 6 2 10 -4 10 -5 0 -11 -3 -14 -7 -2 -5 -2 -2 0 6 2 9 -2 11 -14 7 -14 -6
-14 -4 3 15 10 12 14 19 7 16 -15 -9 -43 2 -43 18 0 7 -7 16 -16 19 -9 3 -12
11 -8 18 5 9 2 8 -9 -1 -23 -18 -34 -7 -16 16 8 9 9 14 2 10 -7 -4 -16 0 -22
10 -8 14 -11 15 -11 3 -1 -10 -4 -9 -10 5 -7 17 -9 17 -9 3 -1 -18 -12 -23
-24 -11 -4 3 -2 12 5 20 9 11 8 13 -3 11 -8 -2 -13 3 -11 10 1 8 -2 11 -7 7
-6 -3 -8 -11 -5 -19 3 -7 -1 -13 -9 -13 -9 0 -13 10 -11 29 2 15 -1 28 -7 28
-6 0 -7 -4 -4 -10 3 -5 1 -10 -5 -10 -6 0 -8 -5 -4 -12 4 -6 3 -8 -3 -5 -6 4
-9 18 -8 32 2 14 -1 23 -6 19 -5 -3 -7 -10 -4 -15 4 -5 1 -9 -4 -9 -6 0 -11 7
-11 15 0 8 -5 15 -11 15 -5 0 -8 -4 -5 -9 3 -5 -1 -11 -9 -14 -10 -4 -12 -1
-8 11 6 15 5 16 -13 2 -15 -11 -16 -11 -6 0 16 18 16 38 0 22 -17 -17 -28 -15
-28 6 0 14 2 15 10 2 5 -8 10 -10 10 -4 0 6 -3 13 -6 17 -8 8 -35 -3 -29 -12
2 -4 -2 -8 -10 -8 -11 0 -12 5 -3 20 7 14 7 17 -1 13 -6 -4 -11 -2 -11 4 0 7
-6 10 -14 7 -7 -3 -19 0 -26 6 -10 9 -9 6 0 -13 12 -22 11 -23 -2 -13 -8 7
-18 10 -21 7 -4 -4 -5 2 -3 13 5 22 -20 27 -43 9 -11 -8 -13 -8 -7 2 4 7 2 12
-8 12 -8 0 -18 -5 -22 -11 -5 -8 -10 -7 -16 4 -5 9 -14 15 -21 13 -6 -1 -9 -1
-4 1 4 3 7 12 6 21 0 11 -2 12 -6 5 -2 -7 -11 -13 -19 -13 -9 0 -13 4 -10 8 6
10 -45 9 -62 -2 -7 -4 -16 -4 -22 -1 -5 3 -10 0 -10 -7 0 -9 -3 -9 -10 2 -5 8
-10 11 -10 6 0 -5 -8 -2 -18 7 -20 18 -81 15 -93 -4 -5 -8 -8 -8 -13 0 -4 6
-2 11 3 11 6 0 11 5 11 11 0 5 -4 8 -9 5 -5 -4 -11 0 -13 6 -4 10 -6 9 -9 -1z
m7 -31 c0 -12 -4 -16 -9 -11 -5 5 -6 14 -3 20 10 15 12 14 12 -9z m99 0 c3 -5
1 -10 -4 -10 -6 0 -11 5 -11 10 0 6 2 10 4 10 3 0 8 -4 11 -10z m285 -50 c0
-5 -5 -10 -11 -10 -5 0 -7 5 -4 10 3 6 8 10 11 10 2 0 4 -4 4 -10z m75 -19 c3
-5 2 -12 -3 -15 -5 -3 -9 1 -9 9 0 17 3 19 12 6z m-1029 -93 c4 -7 3 -10 -1
-5 -5 4 -19 0 -31 -8 -18 -11 -25 -12 -30 -2 -4 6 -4 9 1 5 4 -4 17 -1 29 7
25 18 23 18 32 3z m1309 -58 c3 -5 1 -10 -4 -10 -6 0 -11 5 -11 10 0 6 2 10 4
10 3 0 8 -4 11 -10z m55 -62 c0 -5 -7 -3 -15 6 -8 8 -15 18 -15 22 0 3 7 1 15
-6 8 -7 15 -17 15 -22z m-1903 -349 c-9 -6 -14 -15 -11 -21 5 -7 2 -8 -5 -4
-9 6 -8 13 5 27 9 11 20 17 23 13 3 -3 -2 -10 -12 -15z m2173 -43 c0 -3 -4 -8
-10 -11 -5 -3 -10 -1 -10 4 0 6 5 11 10 11 6 0 10 -2 10 -4z m-2274 -108 c-9
-12 -16 -19 -16 -15 0 11 24 47 28 42 2 -2 -3 -14 -12 -27z m2275 -65 c13 -16
12 -17 -3 -4 -17 13 -22 21 -14 21 2 0 10 -8 17 -17z m-2379 -147 c7 4 8 2 4
-4 -4 -6 -13 -9 -21 -6 -8 4 -12 11 -8 17 5 8 8 7 11 -1 2 -7 9 -9 14 -6z
m-87 -206 c-3 -5 -11 -10 -16 -10 -6 0 -7 5 -4 10 3 6 11 10 16 10 6 0 7 -4 4
-10z m-15 -75 c0 -2 -6 -5 -13 -8 -8 -3 -14 1 -14 8 0 7 6 11 14 8 7 -3 13 -6
13 -8z m-23 -53 c-10 -10 -14 -22 -10 -27 5 -4 2 -5 -4 -1 -10 5 -10 11 0 26
6 11 16 20 21 20 5 0 2 -8 -7 -18z m-52 -301 c3 -5 2 -12 -3 -15 -5 -3 -9 1
-9 9 0 17 3 19 12 6z m1174 -65 c-12 -12 -16 -12 -28 1 -12 13 -11 14 8 8 14
-4 21 -2 21 6 0 7 3 9 7 5 4 -3 0 -13 -8 -20z m115 15 c3 -5 -1 -11 -9 -14 -9
-4 -12 -1 -8 9 6 16 10 17 17 5z m-277 -45 c2 -2 0 -7 -6 -11 -6 -3 -11 -1
-11 6 0 8 -4 8 -15 -1 -17 -14 -31 -8 -21 9 6 9 43 7 53 -3z m666 6 c3 8 6 8
6 2 1 -10 -28 -42 -30 -33 -7 37 -7 40 6 29 10 -8 14 -7 18 2z m157 -2 c0 -5
-2 -10 -4 -10 -3 0 -8 5 -11 10 -3 6 -1 10 4 10 6 0 11 -4 11 -10z m-960 -40
c0 -5 -2 -10 -4 -10 -3 0 -8 5 -11 10 -3 6 -1 10 4 10 6 0 11 -4 11 -10z m-90
-40 c0 -5 -10 -15 -22 -21 -23 -12 -23 -12 -4 10 21 23 26 26 26 11z m-790
-19 c0 -5 -7 -12 -16 -15 -14 -5 -15 -4 -4 9 14 17 20 19 20 6z m11 -34 c-10
-9 -11 -8 -5 6 3 10 9 15 12 12 3 -3 0 -11 -7 -18z m349 -291 c0 -2 -8 -10
-17 -17 -16 -13 -17 -12 -4 4 13 16 21 21 21 13z m-80 -137 c0 -5 -4 -9 -8 -9
-5 0 -9 7 -9 15 0 8 4 12 9 9 4 -3 8 -9 8 -15z m-131 -223 c11 -14 6 -15 -27
-7 -4 1 8 21 12 21 2 0 9 -6 15 -14z"/>
<path d="M3571 3287 c-8 -10 -7 -14 2 -14 8 0 14 6 14 14 0 7 -1 13 -2 13 -2
0 -8 -6 -14 -13z"/>
<path d="M3787 3285 c2 -7 10 -12 17 -12 7 0 13 5 13 12 0 6 -8 11 -18 11 -9
0 -15 -5 -12 -11z"/>
<path d="M3837 3293 c-10 -9 -9 -23 1 -23 5 0 9 7 9 15 0 17 -1 18 -10 8z"/>
<path d="M4343 3285 c0 -8 4 -12 9 -9 5 3 6 10 3 15 -9 13 -12 11 -12 -6z"/>
<path d="M3964 3264 c2 -10 8 -20 14 -22 17 -5 15 13 -2 27 -12 10 -14 9 -12
-5z"/>
<path d="M3315 3239 c-4 -6 -5 -12 -2 -15 2 -3 7 2 10 11 7 17 1 20 -8 4z"/>
<path d="M3170 3190 c0 -5 5 -10 11 -10 5 0 7 5 4 10 -3 6 -8 10 -11 10 -2 0
-4 -4 -4 -10z"/>
<path d="M3226 3188 c3 -5 10 -6 15 -3 13 9 11 12 -6 12 -8 0 -12 -4 -9 -9z"/>
<path d="M4549 3113 c-13 -16 -12 -17 4 -4 9 7 17 15 17 17 0 8 -8 3 -21 -13z"/>
<path d="M4694 2979 c-4 -7 -3 -9 4 -5 5 3 13 0 15 -6 4 -9 6 -10 6 -1 1 17
-16 25 -25 12z"/>
<path d="M4747 2940 c6 -7 9 -20 6 -29 -3 -9 -1 -12 4 -6 4 6 11 12 15 15 4 3
-3 12 -15 19 -15 9 -18 10 -10 1z"/>
<path d="M6230 2936 c0 -2 7 -7 16 -10 8 -3 12 -2 9 4 -6 10 -25 14 -25 6z"/>
<path d="M4773 2895 c0 -8 4 -12 9 -9 5 3 6 10 3 15 -9 13 -12 11 -12 -6z"/>
<path d="M2756 2884 c-3 -8 -10 -12 -16 -9 -5 3 -10 1 -10 -4 0 -14 17 -14 25
-1 4 6 11 8 16 5 5 -3 6 1 3 9 -8 20 -10 20 -18 0z"/>
<path d="M4837 2803 c-10 -9 -9 -23 1 -23 5 0 9 7 9 15 0 17 -1 18 -10 8z"/>
<path d="M4690 2709 c0 -5 5 -7 10 -4 6 3 10 8 10 11 0 2 -4 4 -10 4 -5 0 -10
-5 -10 -11z"/>
<path d="M6233 2605 c0 -8 4 -12 9 -9 4 3 8 9 8 15 0 5 -4 9 -8 9 -5 0 -9 -7
-9 -15z"/>
<path d="M2494 2590 c0 -13 4 -16 10 -10 7 7 7 13 0 20 -6 6 -10 3 -10 -10z"/>
<path d="M6223 2563 c0 -9 4 -10 14 -2 7 6 13 12 13 14 0 1 -6 2 -13 2 -8 0
-14 -6 -14 -14z"/>
<path d="M2399 2445 c-1 -3 -2 -8 -3 -12 -1 -5 -5 -15 -10 -23 -7 -12 -6 -13
4 -3 13 12 23 43 14 43 -2 0 -5 -2 -5 -5z"/>
<path d="M4893 2242 c0 -12 5 -22 9 -22 11 0 10 12 -2 30 -7 12 -9 10 -7 -8z"/>
<path d="M4680 2185 c-7 -8 -9 -15 -6 -15 4 0 14 7 22 15 9 8 11 15 6 15 -5 0
-15 -7 -22 -15z"/>
<path d="M2170 1870 c0 -5 5 -10 10 -10 6 0 10 5 10 10 0 6 -4 10 -10 10 -5 0
-10 -4 -10 -10z"/>
<path d="M2175 1839 c-4 -6 -5 -12 -2 -15 2 -3 7 2 10 11 7 17 1 20 -8 4z"/>
<path d="M4320 1680 c-8 -5 -12 -11 -10 -14 3 -2 14 2 24 10 22 15 10 19 -14
4z"/>
<path d="M5509 1637 c6 -8 7 -18 3 -22 -4 -5 -1 -5 6 -1 10 6 10 11 1 22 -6 8
-14 14 -16 14 -3 0 0 -6 6 -13z"/>
<path d="M4140 1585 c-7 -9 -10 -18 -7 -21 3 -3 10 4 17 15 13 25 8 27 -10 6z"/>
<path d="M4171 1584 c0 -11 3 -14 6 -6 3 7 2 16 -1 19 -3 4 -6 -2 -5 -13z"/>
<path d="M3516 1572 c-2 -4 -1 -14 4 -22 7 -11 9 -9 7 8 -1 24 -3 26 -11 14z"/>
<path d="M4105 1559 c-4 -6 -5 -12 -2 -15 2 -3 7 2 10 11 7 17 1 20 -8 4z"/>
<path d="M3770 1530 c0 -5 5 -10 11 -10 5 0 7 5 4 10 -3 6 -8 10 -11 10 -2 0
-4 -4 -4 -10z"/>
<path d="M4816 1452 c-4 -7 -12 -10 -17 -7 -5 3 -6 -1 -2 -10 4 -12 8 -13 13
-5 4 7 12 10 18 6 6 -3 13 -2 16 3 3 5 16 7 29 4 20 -4 20 -3 4 7 -13 9 -22 9
-32 0 -10 -8 -14 -8 -17 2 -3 9 -6 9 -12 0z"/>
<path d="M2139 1402 c9 -7 10 -11 2 -15 -7 -4 -8 -5 0 -3 15 2 13 20 -3 24
-10 3 -10 2 1 -6z"/>
<path d="M2748 1326 c-10 -7 -15 -16 -12 -19 4 -3 13 1 21 9 20 19 13 26 -9
10z"/>
<path d="M2145 1319 c-4 -6 -5 -12 -2 -15 2 -3 7 2 10 11 7 17 1 20 -8 4z"/>
<path d="M2656 1246 c-12 -19 -13 -27 -3 -32 6 -4 9 -3 4 1 -4 5 0 17 10 27 9
10 14 20 11 23 -3 3 -13 -6 -22 -19z"/>
<path d="M2181 1001 c-9 -6 -10 -11 -2 -15 6 -4 11 -2 11 5 0 8 5 7 18 -2 15
-13 16 -12 3 4 -7 9 -14 17 -15 17 0 0 -7 -4 -15 -9z"/>
<path d="M2355 840 c-10 -11 -15 -20 -11 -20 4 0 16 9 28 20 12 11 17 20 11
20 -5 0 -18 -9 -28 -20z"/>
<path d="M2230 776 c0 -2 7 -7 16 -10 8 -3 12 -2 9 4 -6 10 -25 14 -25 6z"/>
</g>
</svg>
